M48
;Layer_Color=9474304
;FILE_FORMAT=2:4
INCH
;TYPE=PLATED
T1F00S00C0.0100
T2F00S00C0.0200
T3F00S00C0.0276
T4F00S00C0.0354
T5F00S00C0.0354
T6F00S00C0.0394
T7F00S00C0.0945
%
T01
X005156Y004744
X019100Y008100
T02
X003756Y004744
X004634Y007000
X007300Y006600
X016472Y006328
X020572Y006428
X020000Y011300
X006900Y010462
X003400Y009100
T03
X001500Y009670
Y010300
Y010930
T04
X001580Y003260
X002564
T05
X021300Y010600
Y011600
Y012600
T06
X001000Y005500
Y006500
X019400Y001700
X020400
X021400
X001000Y007500
T07
X001000Y001000
X024500
Y012300
X001000
M30
