G04 Layer_Physical_Order=2*
G04 Layer_Color=16711680*
%FSAX24Y24*%
%MOIN*%
G70*
G01*
G75*
%ADD18C,0.0150*%
%ADD19C,0.0100*%
%ADD22C,0.0591*%
%ADD23R,0.0591X0.0591*%
%ADD24O,0.0787X0.0394*%
%ADD25O,0.0787X0.0394*%
%ADD26C,0.1575*%
%ADD27C,0.0787*%
%ADD28C,0.0709*%
%ADD29R,0.0709X0.0709*%
%ADD30C,0.0300*%
%ADD31C,0.0200*%
G36*
X009298Y013147D02*
Y010800D01*
X009306Y010761D01*
X009328Y010728D01*
X009361Y010706D01*
X009400Y010698D01*
X018900D01*
X018939Y010706D01*
X018972Y010728D01*
X018994Y010761D01*
X019002Y010800D01*
Y013147D01*
X024096Y013147D01*
X024109Y013097D01*
X024005Y013041D01*
X023869Y012931D01*
X023759Y012795D01*
X023676Y012641D01*
X023625Y012474D01*
X023608Y012300D01*
X023625Y012126D01*
X023676Y011959D01*
X023759Y011805D01*
X023869Y011669D01*
X024005Y011559D01*
X024159Y011476D01*
X024326Y011425D01*
X024500Y011408D01*
X024674Y011425D01*
X024841Y011476D01*
X024995Y011559D01*
X025131Y011669D01*
X025241Y011805D01*
X025297Y011909D01*
X025347Y011896D01*
X025347Y001404D01*
X025297Y001391D01*
X025241Y001495D01*
X025131Y001631D01*
X024995Y001741D01*
X024841Y001824D01*
X024674Y001875D01*
X024500Y001892D01*
X024326Y001875D01*
X024159Y001824D01*
X024005Y001741D01*
X023869Y001631D01*
X023759Y001495D01*
X023676Y001341D01*
X023625Y001174D01*
X023608Y001000D01*
X023625Y000826D01*
X023676Y000659D01*
X023759Y000505D01*
X023869Y000369D01*
X024005Y000259D01*
X024109Y000203D01*
X024096Y000153D01*
X001404D01*
X001391Y000203D01*
X001495Y000259D01*
X001631Y000369D01*
X001741Y000505D01*
X001824Y000659D01*
X001875Y000826D01*
X001892Y001000D01*
X001875Y001174D01*
X001824Y001341D01*
X001741Y001495D01*
X001631Y001631D01*
X001495Y001741D01*
X001341Y001824D01*
X001174Y001875D01*
X001000Y001892D01*
X000826Y001875D01*
X000659Y001824D01*
X000505Y001741D01*
X000369Y001631D01*
X000259Y001495D01*
X000203Y001391D01*
X000153Y001404D01*
Y011896D01*
X000203Y011909D01*
X000259Y011805D01*
X000369Y011669D01*
X000505Y011559D01*
X000659Y011476D01*
X000826Y011425D01*
X001000Y011408D01*
X001174Y011425D01*
X001341Y011476D01*
X001495Y011559D01*
X001631Y011669D01*
X001741Y011805D01*
X001824Y011959D01*
X001875Y012126D01*
X001892Y012300D01*
X001875Y012474D01*
X001824Y012641D01*
X001741Y012795D01*
X001631Y012931D01*
X001495Y013041D01*
X001391Y013097D01*
X001404Y013147D01*
X009298Y013147D01*
D02*
G37*
%LPC*%
G36*
X004879Y006950D02*
X004684D01*
Y006755D01*
X004732Y006765D01*
X004814Y006820D01*
X004870Y006902D01*
X004879Y006950D01*
D02*
G37*
G36*
X004584Y007245D02*
X004537Y007235D01*
X004454Y007180D01*
X004399Y007098D01*
X004389Y007050D01*
X004584D01*
Y007245D01*
D02*
G37*
G36*
X007350Y006845D02*
Y006650D01*
X007545D01*
X007535Y006698D01*
X007480Y006780D01*
X007398Y006835D01*
X007350Y006845D01*
D02*
G37*
G36*
X004584Y006950D02*
X004389D01*
X004399Y006902D01*
X004454Y006820D01*
X004537Y006765D01*
X004584Y006755D01*
Y006950D01*
D02*
G37*
G36*
X004684Y007245D02*
Y007050D01*
X004879D01*
X004870Y007098D01*
X004814Y007180D01*
X004732Y007235D01*
X004684Y007245D01*
D02*
G37*
G36*
X001050Y007991D02*
Y007550D01*
X001491D01*
X001481Y007629D01*
X001431Y007749D01*
X001352Y007852D01*
X001249Y007931D01*
X001129Y007981D01*
X001050Y007991D01*
D02*
G37*
G36*
X021300Y010999D02*
X021197Y010985D01*
X021101Y010945D01*
X021018Y010882D01*
X020955Y010799D01*
X020915Y010703D01*
X020901Y010600D01*
X020915Y010497D01*
X020955Y010401D01*
X021018Y010318D01*
X021101Y010255D01*
X021147Y010236D01*
Y009263D01*
X020137Y008253D01*
X019231D01*
X019178Y008288D01*
X019100Y008304D01*
X019022Y008288D01*
X018956Y008244D01*
X018912Y008178D01*
X018896Y008100D01*
X018912Y008022D01*
X018956Y007956D01*
X019022Y007912D01*
X019100Y007896D01*
X019178Y007912D01*
X019231Y007947D01*
X020200D01*
X020259Y007959D01*
X020308Y007992D01*
X021408Y009092D01*
X021441Y009141D01*
X021453Y009200D01*
Y010236D01*
X021499Y010255D01*
X021582Y010318D01*
X021645Y010401D01*
X021685Y010497D01*
X021699Y010600D01*
X021685Y010703D01*
X021645Y010799D01*
X021582Y010882D01*
X021499Y010945D01*
X021403Y010985D01*
X021300Y010999D01*
D02*
G37*
G36*
X003350Y009050D02*
X003155D01*
X003164Y009002D01*
X003220Y008920D01*
X003302Y008865D01*
X003350Y008855D01*
Y009050D01*
D02*
G37*
G36*
X000950Y007991D02*
X000871Y007981D01*
X000751Y007931D01*
X000648Y007852D01*
X000569Y007749D01*
X000519Y007629D01*
X000509Y007550D01*
X000950D01*
Y007991D01*
D02*
G37*
G36*
X002919Y003716D02*
X002210D01*
X002171Y003709D01*
X002138Y003686D01*
X002116Y003653D01*
X002108Y003614D01*
Y002906D01*
X002116Y002867D01*
X002138Y002834D01*
X002171Y002811D01*
X002210Y002804D01*
X002919D01*
X002958Y002811D01*
X002991Y002834D01*
X003013Y002867D01*
X003021Y002906D01*
Y003614D01*
X003013Y003653D01*
X002991Y003686D01*
X002958Y003709D01*
X002919Y003716D01*
D02*
G37*
G36*
X003756Y004999D02*
X003658Y004980D01*
X003576Y004924D01*
X003520Y004842D01*
X003501Y004744D01*
X003520Y004647D01*
X003576Y004564D01*
X003658Y004509D01*
X003756Y004489D01*
X003853Y004509D01*
X003936Y004564D01*
X003937Y004566D01*
X005063D01*
X005078Y004556D01*
X005156Y004540D01*
X005234Y004556D01*
X005300Y004600D01*
X005344Y004666D01*
X005360Y004744D01*
X005344Y004822D01*
X005300Y004888D01*
X005234Y004933D01*
X005156Y004948D01*
X005078Y004933D01*
X005063Y004923D01*
X003937D01*
X003936Y004924D01*
X003853Y004980D01*
X003756Y004999D01*
D02*
G37*
G36*
X021400Y002198D02*
X021271Y002181D01*
X021151Y002131D01*
X021048Y002052D01*
X020969Y001949D01*
X020927Y001848D01*
X020873D01*
X020831Y001949D01*
X020752Y002052D01*
X020649Y002131D01*
X020529Y002181D01*
X020400Y002198D01*
X020271Y002181D01*
X020151Y002131D01*
X020048Y002052D01*
X019969Y001949D01*
X019927Y001848D01*
X019873D01*
X019831Y001949D01*
X019752Y002052D01*
X019649Y002131D01*
X019529Y002181D01*
X019400Y002198D01*
X019271Y002181D01*
X019151Y002131D01*
X019048Y002052D01*
X018969Y001949D01*
X018919Y001829D01*
X018902Y001700D01*
X018919Y001571D01*
X018969Y001451D01*
X019048Y001348D01*
X019151Y001269D01*
X019271Y001219D01*
X019400Y001202D01*
X019529Y001219D01*
X019649Y001269D01*
X019752Y001348D01*
X019831Y001451D01*
X019873Y001552D01*
X019927D01*
X019969Y001451D01*
X020048Y001348D01*
X020151Y001269D01*
X020271Y001219D01*
X020400Y001202D01*
X020529Y001219D01*
X020649Y001269D01*
X020752Y001348D01*
X020831Y001451D01*
X020873Y001552D01*
X020927D01*
X020969Y001451D01*
X021048Y001348D01*
X021151Y001269D01*
X021271Y001219D01*
X021400Y001202D01*
X021529Y001219D01*
X021649Y001269D01*
X021752Y001348D01*
X021831Y001451D01*
X021881Y001571D01*
X021898Y001700D01*
X021881Y001829D01*
X021831Y001949D01*
X021752Y002052D01*
X021649Y002131D01*
X021529Y002181D01*
X021400Y002198D01*
D02*
G37*
G36*
X001580Y003718D02*
X001461Y003703D01*
X001351Y003657D01*
X001256Y003584D01*
X001183Y003489D01*
X001137Y003379D01*
X001122Y003260D01*
X001137Y003141D01*
X001183Y003031D01*
X001256Y002936D01*
X001351Y002863D01*
X001461Y002817D01*
X001580Y002802D01*
X001699Y002817D01*
X001809Y002863D01*
X001904Y002936D01*
X001977Y003031D01*
X002023Y003141D01*
X002038Y003260D01*
X002023Y003379D01*
X001977Y003489D01*
X001904Y003584D01*
X001809Y003657D01*
X001699Y003703D01*
X001580Y003718D01*
D02*
G37*
G36*
X001491Y007450D02*
X001000D01*
X000509D01*
X000519Y007371D01*
X000569Y007251D01*
X000648Y007148D01*
X000751Y007069D01*
X000852Y007027D01*
Y006973D01*
X000751Y006931D01*
X000648Y006852D01*
X000569Y006749D01*
X000519Y006629D01*
X000502Y006500D01*
X000519Y006371D01*
X000569Y006251D01*
X000648Y006148D01*
X000751Y006069D01*
X000852Y006027D01*
Y005973D01*
X000751Y005931D01*
X000648Y005852D01*
X000569Y005749D01*
X000519Y005629D01*
X000502Y005500D01*
X000519Y005371D01*
X000569Y005251D01*
X000648Y005148D01*
X000751Y005069D01*
X000871Y005019D01*
X001000Y005002D01*
X001129Y005019D01*
X001249Y005069D01*
X001352Y005148D01*
X001431Y005251D01*
X001481Y005371D01*
X001498Y005500D01*
X001481Y005629D01*
X001431Y005749D01*
X001352Y005852D01*
X001249Y005931D01*
X001148Y005973D01*
Y006027D01*
X001249Y006069D01*
X001352Y006148D01*
X001431Y006251D01*
X001481Y006371D01*
X001498Y006500D01*
X001481Y006629D01*
X001431Y006749D01*
X001352Y006852D01*
X001249Y006931D01*
X001148Y006973D01*
Y007027D01*
X001249Y007069D01*
X001352Y007148D01*
X001431Y007251D01*
X001481Y007371D01*
X001491Y007450D01*
D02*
G37*
G36*
X020572Y006683D02*
X020474Y006664D01*
X020391Y006609D01*
X020370Y006576D01*
X016667Y006486D01*
X016652Y006509D01*
X016569Y006564D01*
X016472Y006583D01*
X016374Y006564D01*
X016291Y006509D01*
X016236Y006426D01*
X016217Y006328D01*
X016236Y006231D01*
X016291Y006148D01*
X016374Y006093D01*
X016472Y006073D01*
X016569Y006093D01*
X016652Y006148D01*
X016673Y006180D01*
X020376Y006271D01*
X020391Y006248D01*
X020474Y006193D01*
X020572Y006173D01*
X020669Y006193D01*
X020752Y006248D01*
X020807Y006331D01*
X020827Y006428D01*
X020807Y006526D01*
X020752Y006609D01*
X020669Y006664D01*
X020572Y006683D01*
D02*
G37*
G36*
X007250Y006845D02*
X007202Y006835D01*
X007120Y006780D01*
X007065Y006698D01*
X007055Y006650D01*
X007250D01*
Y006845D01*
D02*
G37*
G36*
Y006550D02*
X007055D01*
X007065Y006502D01*
X007120Y006420D01*
X007202Y006365D01*
X007250Y006355D01*
Y006550D01*
D02*
G37*
G36*
X007545D02*
X007350D01*
Y006355D01*
X007398Y006365D01*
X007480Y006420D01*
X007535Y006502D01*
X007545Y006550D01*
D02*
G37*
G36*
X003645Y009050D02*
X003450D01*
Y008855D01*
X003498Y008865D01*
X003580Y008920D01*
X003636Y009002D01*
X003645Y009050D01*
D02*
G37*
G36*
X021300Y011999D02*
X021197Y011985D01*
X021101Y011945D01*
X021018Y011882D01*
X020955Y011799D01*
X020915Y011703D01*
X020901Y011600D01*
X020915Y011497D01*
X020955Y011401D01*
X021018Y011318D01*
X021101Y011255D01*
X021197Y011215D01*
X021300Y011201D01*
X021403Y011215D01*
X021499Y011255D01*
X021582Y011318D01*
X021645Y011401D01*
X021685Y011497D01*
X021699Y011600D01*
X021685Y011703D01*
X021645Y011799D01*
X021582Y011882D01*
X021499Y011945D01*
X021403Y011985D01*
X021300Y011999D01*
D02*
G37*
G36*
X019950Y011545D02*
X019902Y011536D01*
X019820Y011480D01*
X019764Y011398D01*
X019755Y011350D01*
X019950D01*
Y011545D01*
D02*
G37*
G36*
Y011250D02*
X019755D01*
X019764Y011202D01*
X019820Y011120D01*
X019902Y011064D01*
X019950Y011055D01*
Y011250D01*
D02*
G37*
G36*
X020245D02*
X020050D01*
Y011055D01*
X020098Y011064D01*
X020180Y011120D01*
X020236Y011202D01*
X020245Y011250D01*
D02*
G37*
G36*
X020050Y011545D02*
Y011350D01*
X020245D01*
X020236Y011398D01*
X020180Y011480D01*
X020098Y011536D01*
X020050Y011545D01*
D02*
G37*
G36*
X021250Y012997D02*
X021005D01*
X020966Y012989D01*
X020933Y012967D01*
X020911Y012934D01*
X020903Y012895D01*
Y012650D01*
X021250D01*
Y012997D01*
D02*
G37*
G36*
X021595D02*
X021350D01*
Y012650D01*
X021697D01*
Y012895D01*
X021689Y012934D01*
X021667Y012967D01*
X021634Y012989D01*
X021595Y012997D01*
D02*
G37*
G36*
X021250Y012550D02*
X020903D01*
Y012305D01*
X020911Y012266D01*
X020933Y012233D01*
X020966Y012211D01*
X021005Y012203D01*
X021250D01*
Y012550D01*
D02*
G37*
G36*
X021697D02*
X021350D01*
Y012203D01*
X021595D01*
X021634Y012211D01*
X021667Y012233D01*
X021689Y012266D01*
X021697Y012305D01*
Y012550D01*
D02*
G37*
G36*
X001450Y009620D02*
X001010D01*
X001014Y009593D01*
X001044Y009520D01*
X001091Y009458D01*
X001153Y009411D01*
X001226Y009381D01*
X001303Y009371D01*
X001450D01*
Y009620D01*
D02*
G37*
G36*
X001990D02*
X001550D01*
Y009371D01*
X001697D01*
X001774Y009381D01*
X001847Y009411D01*
X001909Y009458D01*
X001956Y009520D01*
X001986Y009593D01*
X001990Y009620D01*
D02*
G37*
G36*
X003350Y009345D02*
X003302Y009335D01*
X003220Y009280D01*
X003164Y009198D01*
X003155Y009150D01*
X003350D01*
Y009345D01*
D02*
G37*
G36*
X003450D02*
Y009150D01*
X003645D01*
X003636Y009198D01*
X003580Y009280D01*
X003498Y009335D01*
X003450Y009345D01*
D02*
G37*
G36*
X001697Y011229D02*
X001303D01*
X001226Y011219D01*
X001153Y011189D01*
X001091Y011142D01*
X001044Y011080D01*
X001014Y011007D01*
X001004Y010930D01*
X001014Y010852D01*
X001044Y010780D01*
X001091Y010718D01*
X001153Y010671D01*
X001226Y010641D01*
X001230Y010640D01*
Y010590D01*
X001226Y010589D01*
X001153Y010559D01*
X001091Y010512D01*
X001044Y010450D01*
X001014Y010377D01*
X001004Y010300D01*
X001014Y010223D01*
X001044Y010150D01*
X001091Y010088D01*
X001153Y010041D01*
X001226Y010011D01*
X001230Y010010D01*
Y009960D01*
X001226Y009959D01*
X001153Y009929D01*
X001091Y009882D01*
X001044Y009820D01*
X001014Y009748D01*
X001010Y009720D01*
X001500D01*
X001990D01*
X001986Y009748D01*
X001956Y009820D01*
X001909Y009882D01*
X001847Y009929D01*
X001774Y009959D01*
X001770Y009960D01*
Y010010D01*
X001774Y010011D01*
X001847Y010041D01*
X001909Y010088D01*
X001956Y010150D01*
X001986Y010223D01*
X001996Y010300D01*
X001986Y010377D01*
X001956Y010450D01*
X001909Y010512D01*
X001847Y010559D01*
X001774Y010589D01*
X001770Y010590D01*
Y010640D01*
X001774Y010641D01*
X001847Y010671D01*
X001909Y010718D01*
X001956Y010780D01*
X001986Y010852D01*
X001996Y010930D01*
X001986Y011007D01*
X001956Y011080D01*
X001909Y011142D01*
X001847Y011189D01*
X001774Y011219D01*
X001697Y011229D01*
D02*
G37*
G36*
X006850Y010707D02*
X006802Y010698D01*
X006720Y010642D01*
X006665Y010560D01*
X006655Y010512D01*
X006850D01*
Y010707D01*
D02*
G37*
G36*
X006950D02*
Y010512D01*
X007145D01*
X007135Y010560D01*
X007080Y010642D01*
X006998Y010698D01*
X006950Y010707D01*
D02*
G37*
G36*
X006850Y010412D02*
X006655D01*
X006665Y010365D01*
X006720Y010282D01*
X006802Y010227D01*
X006850Y010217D01*
Y010412D01*
D02*
G37*
G36*
X007145D02*
X006950D01*
Y010217D01*
X006998Y010227D01*
X007080Y010282D01*
X007135Y010365D01*
X007145Y010412D01*
D02*
G37*
%LPD*%
D18*
X003756Y004744D02*
X005156D01*
D19*
X021300Y009200D02*
Y010600D01*
X020200Y008100D02*
X021300Y009200D01*
X019100Y008100D02*
X020200D01*
X016472Y006328D02*
X020572Y006428D01*
D22*
X021300Y010600D02*
D03*
Y011600D02*
D03*
D23*
Y012600D02*
D03*
D24*
X001500Y010930D02*
D03*
Y010300D02*
D03*
D25*
Y009670D02*
D03*
D26*
X024500Y001000D02*
D03*
X001000D02*
D03*
X024500Y012300D02*
D03*
X001000D02*
D03*
D27*
X019400Y001700D02*
D03*
X020400D02*
D03*
X021400D02*
D03*
X001000Y007500D02*
D03*
Y006500D02*
D03*
Y005500D02*
D03*
D28*
X001580Y003260D02*
D03*
D29*
X002564D02*
D03*
D30*
X020000Y011300D02*
D03*
X020572Y006428D02*
D03*
X016472Y006328D02*
D03*
X003400Y009100D02*
D03*
X003756Y004744D02*
D03*
X007300Y006600D02*
D03*
X006900Y010462D02*
D03*
X004634Y007000D02*
D03*
D31*
X019100Y008100D02*
D03*
X005156Y004744D02*
D03*
M02*
