G04 Layer_Physical_Order=1*
G04 Layer_Color=255*
%FSAX24Y24*%
%MOIN*%
G70*
G01*
G75*
%ADD10R,0.1102X0.0354*%
%ADD11R,0.0413X0.0551*%
%ADD12R,0.0630X0.0551*%
%ADD13R,0.0551X0.0413*%
%ADD14R,0.0394X0.0354*%
%ADD15R,0.0433X0.0236*%
%ADD16R,0.0600X0.1200*%
%ADD17R,0.0354X0.0394*%
%ADD18C,0.0150*%
%ADD19C,0.0100*%
%ADD20R,0.0640X0.2470*%
%ADD21R,0.0440X0.2470*%
%ADD22C,0.0591*%
%ADD23R,0.0591X0.0591*%
%ADD24O,0.0787X0.0394*%
%ADD25O,0.0787X0.0394*%
%ADD26C,0.1575*%
%ADD27C,0.0787*%
%ADD28C,0.0709*%
%ADD29R,0.0709X0.0709*%
%ADD30C,0.0300*%
%ADD31C,0.0200*%
G36*
X009298Y013147D02*
Y010800D01*
X009306Y010761D01*
X009328Y010728D01*
X009361Y010706D01*
X009400Y010698D01*
X009649D01*
X009679Y010648D01*
X009676Y010641D01*
X009199D01*
Y010711D01*
X009191Y010750D01*
X009169Y010784D01*
Y010816D01*
X009191Y010850D01*
X009199Y010889D01*
Y011016D01*
X008900D01*
Y011066D01*
X008850D01*
Y011345D01*
X008703D01*
X008664Y011337D01*
X008631Y011315D01*
X008630Y011314D01*
X008570D01*
X008569Y011315D01*
X008536Y011337D01*
X008497Y011345D01*
X008350D01*
Y011066D01*
X008300D01*
Y011016D01*
X008001D01*
Y010889D01*
X008009Y010850D01*
X008031Y010816D01*
Y010784D01*
X008009Y010750D01*
X008001Y010711D01*
Y010641D01*
X007949D01*
X007948Y010643D01*
X007915Y010665D01*
X007876Y010673D01*
X007324D01*
X007285Y010665D01*
X007252Y010643D01*
X007251Y010641D01*
X007081D01*
X007080Y010642D01*
X006998Y010698D01*
X006900Y010717D01*
X006802Y010698D01*
X006720Y010642D01*
X006665Y010560D01*
X006645Y010462D01*
X006665Y010365D01*
X006720Y010282D01*
X006802Y010227D01*
X006900Y010207D01*
X006998Y010227D01*
X007080Y010282D01*
X007081Y010284D01*
X007222D01*
Y010157D01*
X007230Y010118D01*
X007252Y010085D01*
X007285Y010063D01*
X007324Y010056D01*
X007876D01*
X007915Y010063D01*
X007948Y010085D01*
X007970Y010118D01*
X007978Y010157D01*
Y010284D01*
X008033D01*
X008064Y010263D01*
X008103Y010255D01*
X008497D01*
X008536Y010263D01*
X008567Y010284D01*
X008633D01*
X008664Y010263D01*
X008703Y010255D01*
X009097D01*
X009136Y010263D01*
X009167Y010284D01*
X009731D01*
X009738Y010246D01*
X009760Y010213D01*
X009790Y010193D01*
X009793Y010167D01*
X009790Y010141D01*
X009760Y010121D01*
X009738Y010088D01*
X009730Y010049D01*
Y010044D01*
X009199D01*
X009191Y010082D01*
X009169Y010115D01*
X009136Y010137D01*
X009097Y010145D01*
X008703D01*
X008664Y010137D01*
X008631Y010115D01*
X008609Y010082D01*
X008601Y010044D01*
X008466D01*
X008397Y010031D01*
X008340Y009992D01*
X008340Y009992D01*
X008162Y009814D01*
X007978D01*
Y009843D01*
X007970Y009882D01*
X007948Y009915D01*
X007915Y009937D01*
X007876Y009944D01*
X007324D01*
X007285Y009937D01*
X007252Y009915D01*
X007230Y009882D01*
X007222Y009843D01*
Y009429D01*
X007230Y009390D01*
X007252Y009357D01*
X007285Y009335D01*
X007324Y009327D01*
X007876D01*
X007915Y009335D01*
X007948Y009357D01*
X007970Y009390D01*
X007978Y009429D01*
Y009457D01*
X008236D01*
X008304Y009471D01*
X008362Y009510D01*
X008540Y009687D01*
X008601D01*
X008609Y009650D01*
X008631Y009616D01*
Y009584D01*
X008609Y009550D01*
X008601Y009511D01*
Y009384D01*
X009199D01*
Y009511D01*
X009191Y009550D01*
X009169Y009584D01*
Y009616D01*
X009191Y009650D01*
X009199Y009687D01*
X009732D01*
X009738Y009655D01*
X009760Y009622D01*
X009790Y009603D01*
X009793Y009576D01*
X009790Y009550D01*
X009760Y009530D01*
X009738Y009497D01*
X009730Y009458D01*
Y009104D01*
X009738Y009065D01*
X009760Y009032D01*
X009790Y009012D01*
X009793Y008986D01*
X009790Y008959D01*
X009760Y008940D01*
X009738Y008907D01*
X009730Y008868D01*
Y008513D01*
X009738Y008474D01*
X009760Y008441D01*
X009790Y008422D01*
X009793Y008395D01*
X009790Y008369D01*
X009760Y008349D01*
X009738Y008316D01*
X009730Y008277D01*
Y007923D01*
X009738Y007884D01*
X009760Y007851D01*
X009790Y007831D01*
X009793Y007805D01*
X009790Y007778D01*
X009760Y007759D01*
X009738Y007726D01*
X009730Y007687D01*
Y007662D01*
X009654D01*
X009408Y007908D01*
X009359Y007941D01*
X009300Y007953D01*
X009273D01*
Y008076D01*
X009265Y008115D01*
X009243Y008148D01*
X009210Y008170D01*
X009171Y008178D01*
X008757D01*
X008718Y008170D01*
X008685Y008148D01*
X008663Y008115D01*
X008656Y008076D01*
Y007524D01*
X008663Y007485D01*
X008685Y007452D01*
X008718Y007430D01*
X008742Y007425D01*
Y007375D01*
X008718Y007370D01*
X008685Y007348D01*
X008663Y007315D01*
X008656Y007276D01*
Y006724D01*
X008663Y006685D01*
X008685Y006652D01*
X008718Y006630D01*
X008742Y006625D01*
Y006575D01*
X008718Y006570D01*
X008685Y006548D01*
X008663Y006515D01*
X008656Y006476D01*
Y005924D01*
X008663Y005885D01*
X008685Y005852D01*
X008718Y005830D01*
X008757Y005822D01*
X009171D01*
X009210Y005830D01*
X009243Y005852D01*
X009265Y005885D01*
X009273Y005924D01*
Y006175D01*
X009730D01*
Y006151D01*
X009738Y006112D01*
X009760Y006079D01*
X009790Y006059D01*
X009793Y006033D01*
X009790Y006007D01*
X009760Y005987D01*
X009738Y005954D01*
X009730Y005915D01*
Y005788D01*
X011037D01*
Y005915D01*
X011029Y005954D01*
X011007Y005987D01*
X010977Y006007D01*
X010974Y006033D01*
X010977Y006059D01*
X011007Y006079D01*
X011029Y006112D01*
X011037Y006151D01*
Y006175D01*
X016273D01*
X016291Y006148D01*
X016374Y006093D01*
X016472Y006073D01*
X016569Y006093D01*
X016652Y006148D01*
X016707Y006231D01*
X016727Y006328D01*
X016707Y006426D01*
X016652Y006509D01*
X016569Y006564D01*
X016472Y006583D01*
X016374Y006564D01*
X016291Y006509D01*
X016273Y006481D01*
X011037D01*
Y006506D01*
X011029Y006545D01*
X011007Y006578D01*
X010977Y006597D01*
X010974Y006624D01*
X010977Y006650D01*
X011007Y006670D01*
X011029Y006703D01*
X011037Y006742D01*
Y007096D01*
X011029Y007135D01*
X011007Y007168D01*
X010977Y007188D01*
X010974Y007214D01*
X010977Y007241D01*
X011007Y007260D01*
X011029Y007293D01*
X011037Y007332D01*
Y007687D01*
X011029Y007726D01*
X011007Y007759D01*
X010977Y007778D01*
X010974Y007805D01*
X010977Y007831D01*
X011007Y007851D01*
X011029Y007884D01*
X011037Y007923D01*
Y008277D01*
X011029Y008316D01*
X011007Y008349D01*
X010977Y008369D01*
X010974Y008395D01*
X010977Y008422D01*
X011007Y008441D01*
X011029Y008474D01*
X011037Y008513D01*
Y008868D01*
X011029Y008907D01*
X011007Y008940D01*
X010977Y008959D01*
X010974Y008986D01*
X010977Y009012D01*
X011007Y009032D01*
X011029Y009065D01*
X011037Y009104D01*
Y009458D01*
X011029Y009497D01*
X011007Y009530D01*
X010977Y009550D01*
X010974Y009576D01*
X010977Y009603D01*
X011007Y009622D01*
X011029Y009655D01*
X011037Y009694D01*
Y010049D01*
X011029Y010088D01*
X011007Y010121D01*
X010977Y010141D01*
X010974Y010167D01*
X010977Y010193D01*
X011007Y010213D01*
X011029Y010246D01*
X011037Y010285D01*
Y010639D01*
X011035Y010648D01*
X011071Y010698D01*
X017215D01*
X017252Y010648D01*
X017250Y010639D01*
Y010512D01*
X017903D01*
Y010412D01*
X017250D01*
Y010285D01*
X017258Y010246D01*
X017280Y010213D01*
X017309Y010193D01*
X017312Y010167D01*
X017309Y010141D01*
X017280Y010121D01*
X017258Y010088D01*
X017250Y010049D01*
Y010025D01*
X016872D01*
X016813Y010013D01*
X016764Y009980D01*
X016392Y009608D01*
X016359Y009559D01*
X016347Y009500D01*
Y009100D01*
X016359Y009041D01*
X016392Y008992D01*
X016801Y008582D01*
X016851Y008549D01*
X016909Y008538D01*
X017250D01*
Y008513D01*
X017258Y008474D01*
X017280Y008441D01*
X017309Y008422D01*
X017312Y008395D01*
X017309Y008369D01*
X017280Y008349D01*
X017258Y008316D01*
X017250Y008277D01*
Y007923D01*
X017258Y007884D01*
X017280Y007851D01*
X017309Y007831D01*
X017312Y007805D01*
X017309Y007778D01*
X017280Y007759D01*
X017258Y007726D01*
X017250Y007687D01*
Y007559D01*
X017903D01*
X018556D01*
Y007687D01*
X018549Y007726D01*
X018526Y007759D01*
X018497Y007778D01*
X018494Y007805D01*
X018497Y007831D01*
X018526Y007851D01*
X018549Y007884D01*
X018556Y007923D01*
Y007947D01*
X018969D01*
X019022Y007912D01*
X019100Y007896D01*
X019178Y007912D01*
X019244Y007956D01*
X019288Y008022D01*
X019304Y008100D01*
X019288Y008178D01*
X019244Y008244D01*
X019178Y008288D01*
X019100Y008304D01*
X019022Y008288D01*
X018969Y008253D01*
X018556D01*
Y008277D01*
X018549Y008316D01*
X018526Y008349D01*
X018497Y008369D01*
X018494Y008395D01*
X018497Y008422D01*
X018526Y008441D01*
X018549Y008474D01*
X018556Y008513D01*
Y008868D01*
X018549Y008907D01*
X018526Y008940D01*
X018497Y008959D01*
X018494Y008986D01*
X018497Y009012D01*
X018526Y009032D01*
X018549Y009065D01*
X018556Y009104D01*
Y009458D01*
X018549Y009497D01*
X018526Y009530D01*
X018497Y009550D01*
X018494Y009576D01*
X018497Y009603D01*
X018526Y009622D01*
X018549Y009655D01*
X018556Y009694D01*
Y009719D01*
X018909D01*
X018909Y009718D01*
X018931Y009685D01*
X018964Y009663D01*
X019003Y009655D01*
X019397D01*
X019436Y009663D01*
X019469Y009685D01*
X019491Y009718D01*
X019499Y009757D01*
Y009911D01*
X019622D01*
Y009729D01*
X019630Y009690D01*
X019652Y009657D01*
X019685Y009635D01*
X019724Y009627D01*
X019847D01*
Y005233D01*
X019835Y005215D01*
X019827Y005176D01*
Y004624D01*
X019835Y004585D01*
X019857Y004552D01*
X019890Y004530D01*
X019929Y004522D01*
X020343D01*
X020382Y004530D01*
X020415Y004552D01*
X020437Y004585D01*
X020444Y004624D01*
Y005176D01*
X020437Y005215D01*
X020415Y005248D01*
X020382Y005270D01*
X020343Y005278D01*
X020153D01*
Y009627D01*
X020276D01*
X020315Y009635D01*
X020348Y009657D01*
X020370Y009690D01*
X020378Y009729D01*
Y010143D01*
X020370Y010182D01*
X020348Y010215D01*
X020315Y010237D01*
X020276Y010244D01*
X019724D01*
X019685Y010237D01*
X019656Y010217D01*
X019525D01*
X019495Y010267D01*
X019499Y010289D01*
Y010416D01*
X019200D01*
Y010466D01*
X019150D01*
Y010745D01*
X019039D01*
X019001Y010794D01*
X019002Y010800D01*
Y013147D01*
X024096Y013147D01*
X024109Y013097D01*
X024005Y013041D01*
X023869Y012931D01*
X023759Y012795D01*
X023676Y012641D01*
X023625Y012474D01*
X023613Y012350D01*
X024500D01*
Y012300D01*
X024550D01*
Y011413D01*
X024674Y011425D01*
X024841Y011476D01*
X024995Y011559D01*
X025131Y011669D01*
X025241Y011805D01*
X025297Y011909D01*
X025347Y011896D01*
X025347Y001404D01*
X025297Y001391D01*
X025241Y001495D01*
X025131Y001631D01*
X024995Y001741D01*
X024841Y001824D01*
X024674Y001875D01*
X024550Y001887D01*
Y001000D01*
X024500D01*
Y000950D01*
X023613D01*
X023625Y000826D01*
X023676Y000659D01*
X023759Y000505D01*
X023869Y000369D01*
X024005Y000259D01*
X024109Y000203D01*
X024096Y000153D01*
X001404D01*
X001391Y000203D01*
X001495Y000259D01*
X001631Y000369D01*
X001741Y000505D01*
X001824Y000659D01*
X001875Y000826D01*
X001887Y000950D01*
X001000D01*
Y001000D01*
X000950D01*
Y001887D01*
X000826Y001875D01*
X000659Y001824D01*
X000505Y001741D01*
X000369Y001631D01*
X000259Y001495D01*
X000203Y001391D01*
X000153Y001404D01*
Y011896D01*
X000203Y011909D01*
X000259Y011805D01*
X000369Y011669D01*
X000505Y011559D01*
X000659Y011476D01*
X000826Y011425D01*
X000950Y011413D01*
Y012300D01*
X001000D01*
Y012350D01*
X001887D01*
X001875Y012474D01*
X001824Y012641D01*
X001741Y012795D01*
X001631Y012931D01*
X001495Y013041D01*
X001391Y013097D01*
X001404Y013147D01*
X009298Y013147D01*
D02*
G37*
%LPC*%
G36*
X022200Y006041D02*
X021833D01*
Y005713D01*
X022098D01*
X022137Y005721D01*
X022170Y005743D01*
X022192Y005776D01*
X022200Y005815D01*
Y006041D01*
D02*
G37*
G36*
X024932Y006468D02*
X024302D01*
X024263Y006460D01*
X024230Y006438D01*
X024208Y006405D01*
X024200Y006366D01*
Y005815D01*
X024208Y005776D01*
X024230Y005743D01*
X024263Y005721D01*
X024302Y005713D01*
X024932D01*
X024971Y005721D01*
X025004Y005743D01*
X025026Y005776D01*
X025034Y005815D01*
Y006366D01*
X025026Y006405D01*
X025004Y006438D01*
X024971Y006460D01*
X024932Y006468D01*
D02*
G37*
G36*
X021733Y006041D02*
X021366D01*
Y005815D01*
X021374Y005776D01*
X021396Y005743D01*
X021429Y005721D01*
X021468Y005713D01*
X021733D01*
Y006041D01*
D02*
G37*
G36*
X003976Y005644D02*
X003750D01*
Y005386D01*
X004078D01*
Y005543D01*
X004070Y005582D01*
X004048Y005615D01*
X004015Y005637D01*
X003976Y005644D01*
D02*
G37*
G36*
X010333Y005688D02*
X009730D01*
Y005561D01*
X009738Y005522D01*
X009760Y005489D01*
X009793Y005466D01*
X009832Y005459D01*
X010333D01*
Y005688D01*
D02*
G37*
G36*
X011037D02*
X010433D01*
Y005459D01*
X010935D01*
X010974Y005466D01*
X011007Y005489D01*
X011029Y005522D01*
X011037Y005561D01*
Y005688D01*
D02*
G37*
G36*
X003966Y007763D02*
X003414D01*
X003375Y007755D01*
X003342Y007733D01*
X003320Y007700D01*
X003312Y007661D01*
Y007247D01*
X003320Y007208D01*
X003342Y007175D01*
X003375Y007153D01*
X003414Y007146D01*
X003966D01*
X004005Y007153D01*
X004038Y007175D01*
X004060Y007208D01*
X004068Y007247D01*
Y007248D01*
X004118Y007264D01*
X004380Y007002D01*
X004379Y007000D01*
X004399Y006902D01*
X004454Y006820D01*
X004537Y006765D01*
X004634Y006745D01*
X004636Y006746D01*
X004935Y006447D01*
Y006223D01*
X004943Y006184D01*
X004965Y006151D01*
X004998Y006129D01*
X005036Y006121D01*
Y005810D01*
X005003Y005784D01*
X004958Y005803D01*
Y005868D01*
X004950Y005907D01*
X004928Y005940D01*
X004895Y005962D01*
X004856Y005970D01*
X004423D01*
X004384Y005962D01*
X004354Y005942D01*
X004174Y006122D01*
X004124Y006155D01*
X004078Y006165D01*
Y006271D01*
X004070Y006310D01*
X004048Y006343D01*
X004015Y006365D01*
X003987Y006371D01*
Y006421D01*
X004005Y006425D01*
X004038Y006447D01*
X004060Y006480D01*
X004068Y006519D01*
Y006933D01*
X004060Y006972D01*
X004038Y007005D01*
X004005Y007027D01*
X003966Y007034D01*
X003414D01*
X003375Y007027D01*
X003342Y007005D01*
X003320Y006972D01*
X003312Y006933D01*
Y006519D01*
X003320Y006480D01*
X003342Y006447D01*
X003375Y006425D01*
X003403Y006419D01*
Y006369D01*
X003385Y006365D01*
X003352Y006343D01*
X003330Y006310D01*
X003322Y006271D01*
Y005857D01*
X003330Y005818D01*
X003352Y005785D01*
X003385Y005763D01*
X003424Y005756D01*
X003976D01*
X004015Y005763D01*
X004048Y005785D01*
X004076Y005788D01*
X004222Y005641D01*
X004272Y005608D01*
X004320Y005599D01*
X004342Y005553D01*
X004329Y005533D01*
X004321Y005494D01*
Y005257D01*
X004292Y005222D01*
X004220D01*
X004181Y005214D01*
X004148Y005192D01*
X004128Y005162D01*
X004124Y005161D01*
X004078Y005182D01*
Y005286D01*
X003700D01*
X003322D01*
Y005129D01*
X003330Y005090D01*
X003352Y005057D01*
X003385Y005035D01*
X003424Y005027D01*
X003624D01*
X003629Y005019D01*
X003616Y004951D01*
X003576Y004924D01*
X003520Y004842D01*
X003511Y004794D01*
X004001D01*
X003991Y004842D01*
X003936Y004924D01*
X003896Y004951D01*
X003882Y005019D01*
X003888Y005027D01*
X003976D01*
X004015Y005035D01*
X004048Y005057D01*
X004068Y005088D01*
X004072Y005088D01*
X004118Y005067D01*
Y003892D01*
X004116Y003889D01*
X004108Y003850D01*
Y003438D01*
X003021D01*
Y003614D01*
X003013Y003653D01*
X002991Y003686D01*
X002958Y003709D01*
X002919Y003716D01*
X002743D01*
Y004626D01*
X002729Y004694D01*
X002690Y004752D01*
X001816Y005626D01*
X001758Y005665D01*
X001690Y005678D01*
X001460D01*
X001431Y005749D01*
X001352Y005852D01*
X001249Y005931D01*
X001148Y005973D01*
Y006027D01*
X001249Y006069D01*
X001352Y006148D01*
X001431Y006251D01*
X001481Y006371D01*
X001491Y006450D01*
X001000D01*
X000509D01*
X000519Y006371D01*
X000569Y006251D01*
X000648Y006148D01*
X000751Y006069D01*
X000852Y006027D01*
Y005973D01*
X000751Y005931D01*
X000648Y005852D01*
X000569Y005749D01*
X000519Y005629D01*
X000502Y005500D01*
X000519Y005371D01*
X000569Y005251D01*
X000648Y005148D01*
X000751Y005069D01*
X000871Y005019D01*
X001000Y005002D01*
X001129Y005019D01*
X001249Y005069D01*
X001352Y005148D01*
X001431Y005251D01*
X001460Y005322D01*
X001616D01*
X002386Y004552D01*
Y003716D01*
X002210D01*
X002171Y003709D01*
X002138Y003686D01*
X002116Y003653D01*
X002108Y003614D01*
Y002906D01*
X002116Y002867D01*
X002138Y002834D01*
X002171Y002811D01*
X002210Y002804D01*
X002919D01*
X002958Y002811D01*
X002991Y002834D01*
X003013Y002867D01*
X003021Y002906D01*
Y003082D01*
X004108D01*
Y002650D01*
X004116Y002611D01*
X004138Y002578D01*
X004171Y002556D01*
X004210Y002548D01*
X004860D01*
X004899Y002556D01*
X004932Y002578D01*
X004954Y002611D01*
X004960Y002638D01*
X005010D01*
X005016Y002611D01*
X005038Y002578D01*
X005071Y002556D01*
X005110Y002548D01*
X005960D01*
X005999Y002556D01*
X006032Y002578D01*
X006054Y002611D01*
X006062Y002650D01*
Y005120D01*
X006054Y005159D01*
X006034Y005190D01*
X006053Y005218D01*
X006060Y005257D01*
Y005326D01*
X005742D01*
Y005426D01*
X006060D01*
Y005494D01*
X006053Y005533D01*
X006033Y005563D01*
X006053Y005592D01*
X006060Y005631D01*
Y005868D01*
X006053Y005907D01*
X006031Y005940D01*
X005998Y005962D01*
X005958Y005970D01*
X005525D01*
X005486Y005962D01*
X005453Y005940D01*
X005443Y005924D01*
X005393Y005939D01*
Y006121D01*
X005430Y006129D01*
X005464Y006151D01*
X005496D01*
X005530Y006129D01*
X005569Y006121D01*
X005696D01*
Y006420D01*
Y006719D01*
X005569D01*
X005530Y006711D01*
X005496Y006689D01*
X005464D01*
X005430Y006711D01*
X005391Y006719D01*
X005168D01*
X004889Y006998D01*
X004889Y007000D01*
X004870Y007098D01*
X004814Y007180D01*
X004732Y007235D01*
X004634Y007255D01*
X004632Y007254D01*
X004306Y007580D01*
X004248Y007619D01*
X004180Y007633D01*
X004068D01*
Y007661D01*
X004060Y007700D01*
X004038Y007733D01*
X004005Y007755D01*
X003966Y007763D01*
D02*
G37*
G36*
X020898Y007259D02*
X020347D01*
X020308Y007251D01*
X020275Y007229D01*
X020253Y007196D01*
X020245Y007157D01*
Y006743D01*
X020253Y006704D01*
X020275Y006671D01*
X020308Y006649D01*
X020347Y006641D01*
X020357D01*
X020380Y006591D01*
X020336Y006526D01*
X020317Y006428D01*
X020336Y006331D01*
X020391Y006248D01*
X020474Y006193D01*
X020572Y006173D01*
X020669Y006193D01*
X020752Y006248D01*
X020807Y006331D01*
X020827Y006428D01*
X020807Y006526D01*
X020775Y006573D01*
Y006641D01*
X020898D01*
X020937Y006649D01*
X020970Y006671D01*
X020992Y006704D01*
X021000Y006743D01*
Y007157D01*
X020992Y007196D01*
X020970Y007229D01*
X020937Y007251D01*
X020898Y007259D01*
D02*
G37*
G36*
X005923Y006719D02*
X005796D01*
Y006470D01*
X006025D01*
Y006617D01*
X006017Y006656D01*
X005995Y006689D01*
X005962Y006711D01*
X005923Y006719D01*
D02*
G37*
G36*
X001000Y007998D02*
X000871Y007981D01*
X000751Y007931D01*
X000648Y007852D01*
X000569Y007749D01*
X000519Y007629D01*
X000502Y007500D01*
X000519Y007371D01*
X000569Y007251D01*
X000648Y007148D01*
X000751Y007069D01*
X000852Y007027D01*
Y006973D01*
X000751Y006931D01*
X000648Y006852D01*
X000569Y006749D01*
X000519Y006629D01*
X000509Y006550D01*
X001000D01*
X001491D01*
X001481Y006629D01*
X001431Y006749D01*
X001352Y006852D01*
X001249Y006931D01*
X001148Y006973D01*
Y007027D01*
X001249Y007069D01*
X001352Y007148D01*
X001431Y007251D01*
X001481Y007371D01*
X001498Y007500D01*
X001481Y007629D01*
X001431Y007749D01*
X001352Y007852D01*
X001249Y007931D01*
X001129Y007981D01*
X001000Y007998D01*
D02*
G37*
G36*
X006025Y006370D02*
X005796D01*
Y006121D01*
X005923D01*
X005962Y006129D01*
X005995Y006151D01*
X006017Y006184D01*
X006025Y006223D01*
Y006370D01*
D02*
G37*
G36*
X021733Y006468D02*
X021468D01*
X021429Y006460D01*
X021396Y006438D01*
X021374Y006405D01*
X021366Y006366D01*
Y006141D01*
X021733D01*
Y006468D01*
D02*
G37*
G36*
X022098D02*
X021833D01*
Y006141D01*
X022200D01*
Y006366D01*
X022192Y006405D01*
X022170Y006438D01*
X022137Y006460D01*
X022098Y006468D01*
D02*
G37*
G36*
X003650Y005644D02*
X003424D01*
X003385Y005637D01*
X003352Y005615D01*
X003330Y005582D01*
X003322Y005543D01*
Y005386D01*
X003650D01*
Y005644D01*
D02*
G37*
G36*
X021891Y001650D02*
X021450D01*
Y001209D01*
X021529Y001219D01*
X021649Y001269D01*
X021752Y001348D01*
X021831Y001451D01*
X021881Y001571D01*
X021891Y001650D01*
D02*
G37*
G36*
X021450Y002191D02*
Y001750D01*
X021891D01*
X021881Y001829D01*
X021831Y001949D01*
X021752Y002052D01*
X021649Y002131D01*
X021529Y002181D01*
X021450Y002191D01*
D02*
G37*
G36*
X001530Y003210D02*
X001128D01*
X001137Y003141D01*
X001183Y003031D01*
X001256Y002936D01*
X001351Y002863D01*
X001461Y002817D01*
X001530Y002808D01*
Y003210D01*
D02*
G37*
G36*
X001050Y001887D02*
Y001050D01*
X001887D01*
X001875Y001174D01*
X001824Y001341D01*
X001741Y001495D01*
X001631Y001631D01*
X001495Y001741D01*
X001341Y001824D01*
X001174Y001875D01*
X001050Y001887D01*
D02*
G37*
G36*
X024450D02*
X024326Y001875D01*
X024159Y001824D01*
X024005Y001741D01*
X023869Y001631D01*
X023759Y001495D01*
X023676Y001341D01*
X023625Y001174D01*
X023613Y001050D01*
X024450D01*
Y001887D01*
D02*
G37*
G36*
X001990Y010880D02*
X001500D01*
X001010D01*
X001014Y010852D01*
X001044Y010780D01*
X001091Y010718D01*
X001153Y010671D01*
X001226Y010641D01*
X001230Y010640D01*
Y010590D01*
X001226Y010589D01*
X001153Y010559D01*
X001091Y010512D01*
X001044Y010450D01*
X001014Y010377D01*
X001004Y010300D01*
X001014Y010223D01*
X001044Y010150D01*
X001091Y010088D01*
X001153Y010041D01*
X001226Y010011D01*
X001230Y010010D01*
Y009960D01*
X001226Y009959D01*
X001153Y009929D01*
X001091Y009882D01*
X001044Y009820D01*
X001014Y009748D01*
X001004Y009670D01*
X001014Y009593D01*
X001044Y009520D01*
X001091Y009458D01*
X001153Y009411D01*
X001226Y009381D01*
X001303Y009371D01*
X001697D01*
X001774Y009381D01*
X001847Y009411D01*
X001909Y009458D01*
X001956Y009520D01*
X001986Y009593D01*
X001996Y009670D01*
X001986Y009748D01*
X001956Y009820D01*
X001909Y009882D01*
X001847Y009929D01*
X001774Y009959D01*
X001770Y009960D01*
Y010010D01*
X001774Y010011D01*
X001847Y010041D01*
X001909Y010088D01*
X001954Y010147D01*
X003025D01*
X003030Y010118D01*
X003052Y010085D01*
X003085Y010063D01*
X003124Y010056D01*
X003676D01*
X003715Y010063D01*
X003748Y010085D01*
X003770Y010118D01*
X003775Y010147D01*
X005437D01*
X006247Y009337D01*
Y006400D01*
X006259Y006341D01*
X006292Y006292D01*
X007492Y005092D01*
X007541Y005059D01*
X007600Y005047D01*
X013800D01*
X013859Y005059D01*
X013908Y005092D01*
X014363Y005547D01*
X017253D01*
X017258Y005522D01*
X017280Y005489D01*
X017313Y005466D01*
X017352Y005459D01*
X018454D01*
X018493Y005466D01*
X018526Y005489D01*
X018549Y005522D01*
X018556Y005561D01*
Y005915D01*
X018549Y005954D01*
X018526Y005987D01*
X018497Y006007D01*
X018494Y006033D01*
X018497Y006059D01*
X018526Y006079D01*
X018549Y006112D01*
X018555Y006144D01*
X018576Y006155D01*
X018606Y006161D01*
X018947Y005820D01*
Y003200D01*
X018959Y003141D01*
X018992Y003092D01*
X019247Y002837D01*
Y002171D01*
X019151Y002131D01*
X019048Y002052D01*
X018969Y001949D01*
X018919Y001829D01*
X018902Y001700D01*
X018919Y001571D01*
X018969Y001451D01*
X019048Y001348D01*
X019151Y001269D01*
X019271Y001219D01*
X019400Y001202D01*
X019529Y001219D01*
X019649Y001269D01*
X019752Y001348D01*
X019831Y001451D01*
X019873Y001552D01*
X019927D01*
X019969Y001451D01*
X020048Y001348D01*
X020151Y001269D01*
X020271Y001219D01*
X020400Y001202D01*
X020529Y001219D01*
X020649Y001269D01*
X020752Y001348D01*
X020831Y001451D01*
X020873Y001552D01*
X020927D01*
X020969Y001451D01*
X021048Y001348D01*
X021151Y001269D01*
X021271Y001219D01*
X021350Y001209D01*
Y001700D01*
Y002191D01*
X021271Y002181D01*
X021151Y002131D01*
X021048Y002052D01*
X020969Y001949D01*
X020927Y001848D01*
X020873D01*
X020831Y001949D01*
X020752Y002052D01*
X020649Y002131D01*
X020553Y002171D01*
Y002900D01*
X020541Y002959D01*
X020508Y003008D01*
X019653Y003863D01*
Y006200D01*
X019641Y006259D01*
X019608Y006308D01*
X018889Y007027D01*
X018840Y007060D01*
X018781Y007072D01*
X018556D01*
Y007096D01*
X018549Y007135D01*
X018526Y007168D01*
X018497Y007188D01*
X018494Y007214D01*
X018497Y007241D01*
X018526Y007260D01*
X018549Y007293D01*
X018556Y007332D01*
Y007459D01*
X017903D01*
X017250D01*
Y007332D01*
X017258Y007293D01*
X017280Y007260D01*
X017309Y007241D01*
X017312Y007214D01*
X017309Y007188D01*
X017280Y007168D01*
X017258Y007135D01*
X017250Y007096D01*
Y006742D01*
X017258Y006703D01*
X017280Y006670D01*
X017309Y006650D01*
X017312Y006624D01*
X017309Y006597D01*
X017280Y006578D01*
X017258Y006545D01*
X017250Y006506D01*
Y006151D01*
X017258Y006112D01*
X017280Y006079D01*
X017309Y006059D01*
X017312Y006033D01*
X017309Y006007D01*
X017280Y005987D01*
X017258Y005954D01*
X017250Y005915D01*
Y005853D01*
X014300D01*
X014241Y005841D01*
X014192Y005808D01*
X013737Y005353D01*
X007663D01*
X006553Y006463D01*
Y009400D01*
X006541Y009459D01*
X006508Y009508D01*
X005608Y010408D01*
X005559Y010441D01*
X005500Y010453D01*
X003778D01*
Y010571D01*
X003770Y010610D01*
X003748Y010643D01*
X003715Y010665D01*
X003676Y010673D01*
X003124D01*
X003085Y010665D01*
X003052Y010643D01*
X003030Y010610D01*
X003022Y010571D01*
Y010453D01*
X001954D01*
X001909Y010512D01*
X001847Y010559D01*
X001774Y010589D01*
X001770Y010590D01*
Y010640D01*
X001774Y010641D01*
X001847Y010671D01*
X001909Y010718D01*
X001956Y010780D01*
X001986Y010852D01*
X001990Y010880D01*
D02*
G37*
G36*
X002032Y003210D02*
X001630D01*
Y002808D01*
X001699Y002817D01*
X001809Y002863D01*
X001904Y002936D01*
X001977Y003031D01*
X002023Y003141D01*
X002032Y003210D01*
D02*
G37*
G36*
X004001Y004694D02*
X003806D01*
Y004499D01*
X003853Y004509D01*
X003936Y004564D01*
X003991Y004647D01*
X004001Y004694D01*
D02*
G37*
G36*
X024932Y005287D02*
X024302D01*
X024263Y005279D01*
X024230Y005257D01*
X024208Y005224D01*
X024200Y005185D01*
Y004634D01*
X024208Y004595D01*
X024230Y004562D01*
X024263Y004540D01*
X024302Y004532D01*
X024932D01*
X024971Y004540D01*
X025004Y004562D01*
X025026Y004595D01*
X025034Y004634D01*
Y005185D01*
X025026Y005224D01*
X025004Y005257D01*
X024971Y005279D01*
X024932Y005287D01*
D02*
G37*
G36*
X022098D02*
X021468D01*
X021429Y005279D01*
X021396Y005257D01*
X021374Y005224D01*
X021366Y005185D01*
Y005053D01*
X021173D01*
Y005176D01*
X021165Y005215D01*
X021143Y005248D01*
X021110Y005270D01*
X021071Y005278D01*
X020657D01*
X020618Y005270D01*
X020585Y005248D01*
X020563Y005215D01*
X020556Y005176D01*
Y004624D01*
X020563Y004585D01*
X020585Y004552D01*
X020618Y004530D01*
X020657Y004522D01*
X021071D01*
X021110Y004530D01*
X021143Y004552D01*
X021165Y004585D01*
X021173Y004624D01*
Y004747D01*
X021366D01*
Y004634D01*
X021374Y004595D01*
X021396Y004562D01*
X021429Y004540D01*
X021468Y004532D01*
X022098D01*
X022137Y004540D01*
X022170Y004562D01*
X022192Y004595D01*
X022200Y004634D01*
Y005185D01*
X022192Y005224D01*
X022170Y005257D01*
X022137Y005279D01*
X022098Y005287D01*
D02*
G37*
G36*
X001530Y003712D02*
X001461Y003703D01*
X001351Y003657D01*
X001256Y003584D01*
X001183Y003489D01*
X001137Y003379D01*
X001128Y003310D01*
X001530D01*
Y003712D01*
D02*
G37*
G36*
X001630D02*
Y003310D01*
X002032D01*
X002023Y003379D01*
X001977Y003489D01*
X001904Y003584D01*
X001809Y003657D01*
X001699Y003703D01*
X001630Y003712D01*
D02*
G37*
G36*
X003706Y004694D02*
X003511D01*
X003520Y004647D01*
X003576Y004564D01*
X003658Y004509D01*
X003706Y004499D01*
Y004694D01*
D02*
G37*
G36*
X001697Y011229D02*
X001550D01*
Y010980D01*
X001990D01*
X001986Y011007D01*
X001956Y011080D01*
X001909Y011142D01*
X001847Y011189D01*
X001774Y011219D01*
X001697Y011229D01*
D02*
G37*
G36*
X008250Y011345D02*
X008103D01*
X008064Y011337D01*
X008031Y011315D01*
X008009Y011282D01*
X008001Y011243D01*
Y011116D01*
X008250D01*
Y011345D01*
D02*
G37*
G36*
X009097D02*
X008950D01*
Y011116D01*
X009199D01*
Y011243D01*
X009191Y011282D01*
X009169Y011315D01*
X009136Y011337D01*
X009097Y011345D01*
D02*
G37*
G36*
X020000Y011555D02*
X019902Y011536D01*
X019820Y011480D01*
X019764Y011398D01*
X019745Y011300D01*
X019764Y011202D01*
X019820Y011120D01*
X019822Y011119D01*
Y010973D01*
X019724D01*
X019685Y010965D01*
X019652Y010943D01*
X019630Y010910D01*
X019622Y010871D01*
Y010457D01*
X019630Y010418D01*
X019652Y010385D01*
X019685Y010363D01*
X019724Y010356D01*
X020276D01*
X020315Y010363D01*
X020348Y010385D01*
X020370Y010418D01*
X020378Y010457D01*
Y010871D01*
X020370Y010910D01*
X020348Y010943D01*
X020315Y010965D01*
X020276Y010973D01*
X020178D01*
Y011119D01*
X020180Y011120D01*
X020236Y011202D01*
X020255Y011300D01*
X020236Y011398D01*
X020180Y011480D01*
X020098Y011536D01*
X020000Y011555D01*
D02*
G37*
G36*
X019397Y010745D02*
X019250D01*
Y010516D01*
X019499D01*
Y010643D01*
X019491Y010682D01*
X019469Y010715D01*
X019436Y010737D01*
X019397Y010745D01*
D02*
G37*
G36*
X001450Y011229D02*
X001303D01*
X001226Y011219D01*
X001153Y011189D01*
X001091Y011142D01*
X001044Y011080D01*
X001014Y011007D01*
X001010Y010980D01*
X001450D01*
Y011229D01*
D02*
G37*
G36*
X021250Y011550D02*
X020908D01*
X020915Y011497D01*
X020955Y011401D01*
X021018Y011318D01*
X021101Y011255D01*
X021197Y011215D01*
X021250Y011208D01*
Y011550D01*
D02*
G37*
G36*
Y011992D02*
X021197Y011985D01*
X021101Y011945D01*
X021018Y011882D01*
X020955Y011799D01*
X020915Y011703D01*
X020908Y011650D01*
X021250D01*
Y011992D01*
D02*
G37*
G36*
X021350D02*
Y011650D01*
X021692D01*
X021685Y011703D01*
X021645Y011799D01*
X021582Y011882D01*
X021499Y011945D01*
X021403Y011985D01*
X021350Y011992D01*
D02*
G37*
G36*
X021595Y012997D02*
X021005D01*
X020966Y012989D01*
X020933Y012967D01*
X020911Y012934D01*
X020903Y012895D01*
Y012305D01*
X020911Y012266D01*
X020933Y012233D01*
X020966Y012211D01*
X021005Y012203D01*
X021595D01*
X021634Y012211D01*
X021667Y012233D01*
X021689Y012266D01*
X021697Y012305D01*
Y012895D01*
X021689Y012934D01*
X021667Y012967D01*
X021634Y012989D01*
X021595Y012997D01*
D02*
G37*
G36*
X021692Y011550D02*
X021350D01*
Y011208D01*
X021403Y011215D01*
X021499Y011255D01*
X021582Y011318D01*
X021645Y011401D01*
X021685Y011497D01*
X021692Y011550D01*
D02*
G37*
G36*
X001887Y012250D02*
X001050D01*
Y011413D01*
X001174Y011425D01*
X001341Y011476D01*
X001495Y011559D01*
X001631Y011669D01*
X001741Y011805D01*
X001824Y011959D01*
X001875Y012126D01*
X001887Y012250D01*
D02*
G37*
G36*
X024450D02*
X023613D01*
X023625Y012126D01*
X023676Y011959D01*
X023759Y011805D01*
X023869Y011669D01*
X024005Y011559D01*
X024159Y011476D01*
X024326Y011425D01*
X024450Y011413D01*
Y012250D01*
D02*
G37*
G36*
X021300Y010999D02*
X021197Y010985D01*
X021101Y010945D01*
X021018Y010882D01*
X020955Y010799D01*
X020915Y010703D01*
X020901Y010600D01*
X020915Y010497D01*
X020955Y010401D01*
X021018Y010318D01*
X021101Y010255D01*
X021197Y010215D01*
X021300Y010201D01*
X021403Y010215D01*
X021499Y010255D01*
X021582Y010318D01*
X021645Y010401D01*
X021685Y010497D01*
X021699Y010600D01*
X021685Y010703D01*
X021645Y010799D01*
X021582Y010882D01*
X021499Y010945D01*
X021403Y010985D01*
X021300Y010999D01*
D02*
G37*
G36*
X008186Y008178D02*
X008029D01*
X007990Y008170D01*
X007957Y008148D01*
X007935Y008115D01*
X007927Y008076D01*
Y007850D01*
X008186D01*
Y008178D01*
D02*
G37*
G36*
X008443D02*
X008286D01*
Y007850D01*
X008544D01*
Y008076D01*
X008537Y008115D01*
X008515Y008148D01*
X008482Y008170D01*
X008443Y008178D01*
D02*
G37*
G36*
X003676Y009944D02*
X003124D01*
X003085Y009937D01*
X003052Y009915D01*
X003030Y009882D01*
X003022Y009843D01*
Y009429D01*
X003030Y009390D01*
X003052Y009357D01*
X003085Y009335D01*
X003124Y009327D01*
X003207D01*
X003218Y009277D01*
X003164Y009198D01*
X003145Y009100D01*
X003164Y009002D01*
X003220Y008920D01*
X003302Y008865D01*
X003400Y008845D01*
X003498Y008865D01*
X003580Y008920D01*
X003636Y009002D01*
X003655Y009100D01*
X003636Y009198D01*
X003582Y009277D01*
X003593Y009327D01*
X003676D01*
X003715Y009335D01*
X003748Y009357D01*
X003770Y009390D01*
X003778Y009429D01*
Y009843D01*
X003770Y009882D01*
X003748Y009915D01*
X003715Y009937D01*
X003676Y009944D01*
D02*
G37*
G36*
X008544Y007750D02*
X008236D01*
X007927D01*
Y007524D01*
X007935Y007485D01*
X007957Y007452D01*
X007990Y007430D01*
X008014Y007425D01*
Y007375D01*
X007990Y007370D01*
X007957Y007348D01*
X007935Y007315D01*
X007927Y007276D01*
Y007178D01*
X007700D01*
X007632Y007165D01*
X007574Y007126D01*
X007574Y007126D01*
X007302Y006854D01*
X007300Y006855D01*
X007202Y006835D01*
X007120Y006780D01*
X007065Y006698D01*
X007045Y006600D01*
X007065Y006502D01*
X007120Y006420D01*
X007202Y006365D01*
X007300Y006345D01*
X007302Y006346D01*
X007574Y006074D01*
X007574Y006074D01*
X007632Y006035D01*
X007700Y006022D01*
X007927D01*
Y005924D01*
X007935Y005885D01*
X007957Y005852D01*
X007990Y005830D01*
X008029Y005822D01*
X008443D01*
X008482Y005830D01*
X008515Y005852D01*
X008537Y005885D01*
X008544Y005924D01*
Y006476D01*
X008537Y006515D01*
X008515Y006548D01*
X008482Y006570D01*
X008458Y006575D01*
Y006625D01*
X008482Y006630D01*
X008515Y006652D01*
X008537Y006685D01*
X008544Y006724D01*
Y007276D01*
X008537Y007315D01*
X008515Y007348D01*
X008482Y007370D01*
X008458Y007375D01*
Y007425D01*
X008482Y007430D01*
X008515Y007452D01*
X008537Y007485D01*
X008544Y007524D01*
Y007750D01*
D02*
G37*
G36*
X022098Y008587D02*
X021468D01*
X021429Y008579D01*
X021396Y008557D01*
X021374Y008524D01*
X021366Y008485D01*
Y008009D01*
X021188Y007831D01*
X021000D01*
Y007885D01*
X020992Y007924D01*
X020970Y007957D01*
X020937Y007979D01*
X020898Y007987D01*
X020347D01*
X020308Y007979D01*
X020275Y007957D01*
X020253Y007924D01*
X020245Y007885D01*
Y007472D01*
X020253Y007433D01*
X020275Y007400D01*
X020308Y007377D01*
X020347Y007370D01*
X020898D01*
X020937Y007377D01*
X020970Y007400D01*
X020992Y007433D01*
X021000Y007472D01*
Y007525D01*
X021252D01*
X021310Y007537D01*
X021360Y007570D01*
X021621Y007832D01*
X022098D01*
X022137Y007840D01*
X022170Y007862D01*
X022192Y007895D01*
X022200Y007934D01*
Y008485D01*
X022192Y008524D01*
X022170Y008557D01*
X022137Y008579D01*
X022098Y008587D01*
D02*
G37*
G36*
X024932D02*
X024302D01*
X024263Y008579D01*
X024230Y008557D01*
X024208Y008524D01*
X024200Y008485D01*
Y007934D01*
X024208Y007895D01*
X024230Y007862D01*
X024263Y007840D01*
X024302Y007832D01*
X024932D01*
X024971Y007840D01*
X025004Y007862D01*
X025026Y007895D01*
X025034Y007934D01*
Y008485D01*
X025026Y008524D01*
X025004Y008557D01*
X024971Y008579D01*
X024932Y008587D01*
D02*
G37*
G36*
X021733Y009341D02*
X021366D01*
Y009115D01*
X021374Y009076D01*
X021396Y009043D01*
X021429Y009021D01*
X021468Y009013D01*
X021733D01*
Y009341D01*
D02*
G37*
G36*
X009199Y009284D02*
X008950D01*
Y009055D01*
X009097D01*
X009136Y009063D01*
X009169Y009085D01*
X009191Y009118D01*
X009199Y009157D01*
Y009284D01*
D02*
G37*
G36*
X021733Y009768D02*
X021468D01*
X021429Y009760D01*
X021396Y009738D01*
X021374Y009705D01*
X021366Y009666D01*
Y009441D01*
X021733D01*
Y009768D01*
D02*
G37*
G36*
X022098D02*
X021833D01*
Y009441D01*
X022200D01*
Y009666D01*
X022192Y009705D01*
X022170Y009738D01*
X022137Y009760D01*
X022098Y009768D01*
D02*
G37*
G36*
X022200Y009341D02*
X021833D01*
Y009013D01*
X022098D01*
X022137Y009021D01*
X022170Y009043D01*
X022192Y009076D01*
X022200Y009115D01*
Y009341D01*
D02*
G37*
G36*
X024932Y009768D02*
X024302D01*
X024263Y009760D01*
X024230Y009738D01*
X024208Y009705D01*
X024200Y009666D01*
Y009115D01*
X024208Y009076D01*
X024230Y009043D01*
X024263Y009021D01*
X024302Y009013D01*
X024932D01*
X024971Y009021D01*
X025004Y009043D01*
X025026Y009076D01*
X025034Y009115D01*
Y009666D01*
X025026Y009705D01*
X025004Y009738D01*
X024971Y009760D01*
X024932Y009768D01*
D02*
G37*
G36*
X008850Y009284D02*
X008601D01*
Y009157D01*
X008609Y009118D01*
X008631Y009085D01*
X008664Y009063D01*
X008703Y009055D01*
X008850D01*
Y009284D01*
D02*
G37*
%LPD*%
D10*
X017903Y010462D02*
D03*
Y009872D02*
D03*
Y009281D02*
D03*
Y008691D02*
D03*
Y008100D02*
D03*
Y007509D02*
D03*
Y006919D02*
D03*
Y006328D02*
D03*
Y005738D02*
D03*
X010383D02*
D03*
Y006328D02*
D03*
Y006919D02*
D03*
Y007509D02*
D03*
Y008100D02*
D03*
Y008691D02*
D03*
Y009281D02*
D03*
Y009872D02*
D03*
Y010462D02*
D03*
D11*
X020136Y004900D02*
D03*
X020864D02*
D03*
X008964Y006200D02*
D03*
X008236D02*
D03*
X008964Y007000D02*
D03*
X008236D02*
D03*
X008964Y007800D02*
D03*
X008236D02*
D03*
D12*
X021783Y008209D02*
D03*
X024617D02*
D03*
X021783Y009391D02*
D03*
X024617D02*
D03*
X021783Y004909D02*
D03*
X024617D02*
D03*
X021783Y006091D02*
D03*
X024617D02*
D03*
D13*
X020000Y009936D02*
D03*
Y010664D02*
D03*
X007600Y009636D02*
D03*
Y010364D02*
D03*
X020622Y006950D02*
D03*
Y007678D02*
D03*
X003400Y009636D02*
D03*
Y010364D02*
D03*
X003700Y006064D02*
D03*
Y005336D02*
D03*
X003690Y007454D02*
D03*
Y006726D02*
D03*
D14*
X019200Y010466D02*
D03*
Y009934D02*
D03*
X008900Y011066D02*
D03*
Y010534D02*
D03*
Y009334D02*
D03*
Y009866D02*
D03*
X008300Y011066D02*
D03*
Y010534D02*
D03*
D15*
X004640Y005002D02*
D03*
Y005376D02*
D03*
Y005750D02*
D03*
X005742D02*
D03*
Y005376D02*
D03*
Y005002D02*
D03*
D16*
X004510Y003250D02*
D03*
X005410D02*
D03*
D17*
X005156Y004290D02*
D03*
X004624D02*
D03*
X005214Y006420D02*
D03*
X005746D02*
D03*
D18*
X006900Y010462D02*
X010600D01*
X020000Y010764D02*
Y011300D01*
X003400Y009100D02*
Y009636D01*
X007700Y006200D02*
X008236D01*
X007300Y006600D02*
X007700Y006200D01*
Y007000D02*
X008236D01*
X007300Y006600D02*
X007700Y007000D01*
X004634D02*
X005214Y006420D01*
X004180Y007454D02*
X004634Y007000D01*
X005156Y004290D02*
Y004744D01*
X010594Y009966D02*
X010600Y009972D01*
X008900Y009866D02*
X010594D01*
X007600Y009636D02*
X008236D01*
X008466Y009866D01*
X008900D01*
X001000Y005500D02*
X001690D01*
X003690Y007454D02*
X004180D01*
X001690Y005500D02*
X002564Y004626D01*
Y003260D02*
Y004626D01*
X004500Y003260D02*
X004510Y003250D01*
X002564Y003260D02*
X004500D01*
X004640Y005376D02*
X004856D01*
X005214Y005734D01*
Y006420D01*
D19*
X019230Y010064D02*
X020000D01*
Y009936D02*
Y010036D01*
Y005036D02*
Y009936D01*
X017687Y009872D02*
X019137D01*
X016872D02*
X017687D01*
Y008100D02*
X019100D01*
X017687Y006919D02*
X018781D01*
X019500Y006200D01*
Y003800D02*
Y006200D01*
X017687Y006328D02*
X018655D01*
X019100Y005884D01*
Y003200D02*
Y005884D01*
X014300Y005700D02*
X017549D01*
X013800Y005200D02*
X014300Y005700D01*
X010600Y006328D02*
X016472D01*
X009093D02*
X010600D01*
X009591Y007509D02*
X010600D01*
X016909Y008691D02*
X017687D01*
X006400Y006400D02*
Y009400D01*
Y006400D02*
X007600Y005200D01*
X013800D01*
X020000Y005036D02*
X020136Y004900D01*
X019500Y003800D02*
X020400Y002900D01*
Y001700D02*
Y002900D01*
X019400Y001700D02*
Y002900D01*
X019100Y003200D02*
X019400Y002900D01*
X020622Y006479D02*
Y006950D01*
X020572Y006428D02*
X020622Y006479D01*
X021252Y007678D02*
X021783Y008209D01*
X020622Y007678D02*
X021252D01*
X003690Y006014D02*
Y006726D01*
Y006014D02*
X004066D01*
X003336Y010300D02*
X003400Y010364D01*
X001500Y010300D02*
X003336D01*
X003400Y010364D02*
X003464Y010300D01*
X005500D01*
X021773Y004900D02*
X021783Y004909D01*
X020864Y004900D02*
X021773D01*
X019137Y009972D02*
X019230Y010064D01*
X016500Y009100D02*
X016909Y008691D01*
X016500Y009100D02*
Y009500D01*
X016872Y009872D01*
X005500Y010300D02*
X006400Y009400D01*
X009300Y007800D02*
X009591Y007509D01*
X008964Y007800D02*
X009300D01*
X010519Y007000D02*
X010600Y006919D01*
X008964Y007000D02*
X010519D01*
X008964Y006200D02*
X009093Y006328D01*
X004066Y006014D02*
X004330Y005750D01*
X004640D01*
X005569D02*
X005742D01*
X005375Y005556D02*
X005569Y005750D01*
X005375Y005425D02*
Y005556D01*
X004951Y005002D02*
X005375Y005425D01*
X004640Y005002D02*
X004951D01*
D20*
X004540Y003885D02*
D03*
D21*
X005740D02*
D03*
D22*
X021300Y010600D02*
D03*
Y011600D02*
D03*
D23*
Y012600D02*
D03*
D24*
X001500Y010930D02*
D03*
Y010300D02*
D03*
D25*
Y009670D02*
D03*
D26*
X024500Y001000D02*
D03*
X001000D02*
D03*
X024500Y012300D02*
D03*
X001000D02*
D03*
D27*
X019400Y001700D02*
D03*
X020400D02*
D03*
X021400D02*
D03*
X001000Y007500D02*
D03*
Y006500D02*
D03*
Y005500D02*
D03*
D28*
X001580Y003260D02*
D03*
D29*
X002564D02*
D03*
D30*
X020000Y011300D02*
D03*
X020572Y006428D02*
D03*
X016472Y006328D02*
D03*
X003400Y009100D02*
D03*
X003756Y004744D02*
D03*
X007300Y006600D02*
D03*
X006900Y010462D02*
D03*
X004634Y007000D02*
D03*
D31*
X019100Y008100D02*
D03*
X005156Y004744D02*
D03*
M02*
