G04 Layer_Color=2752767*
%FSAX24Y24*%
%MOIN*%
G70*
G01*
G75*
%ADD56C,0.0020*%
%ADD57C,0.0027*%
D56*
X021220Y010520D02*
Y010680D01*
X021380D01*
Y010520D01*
X021220D01*
Y011520D02*
Y011680D01*
X021380D01*
Y011520D01*
X021220D01*
Y012520D02*
Y012680D01*
X021380D01*
Y012520D01*
X021220D01*
X024500Y000920D02*
X024420Y001080D01*
X024580D01*
X024500Y000920D01*
X001000D02*
X000920Y001080D01*
X001080D01*
X001000Y000920D01*
X024500Y012220D02*
X024420Y012380D01*
X024580D01*
X024500Y012220D01*
X001000D02*
X000920Y012380D01*
X001080D01*
X001000Y012220D01*
X019400Y001620D02*
X019440Y001660D01*
X019480D01*
X019440Y001700D01*
X019480Y001740D01*
X019440D01*
X019400Y001780D01*
X019360Y001740D01*
X019320D01*
X019360Y001700D01*
X019320Y001660D01*
X019360D01*
X019400Y001620D01*
X020400D02*
X020440Y001660D01*
X020480D01*
X020440Y001700D01*
X020480Y001740D01*
X020440D01*
X020400Y001780D01*
X020360Y001740D01*
X020320D01*
X020360Y001700D01*
X020320Y001660D01*
X020360D01*
X020400Y001620D01*
X021400D02*
X021440Y001660D01*
X021480D01*
X021440Y001700D01*
X021480Y001740D01*
X021440D01*
X021400Y001780D01*
X021360Y001740D01*
X021320D01*
X021360Y001700D01*
X021320Y001660D01*
X021360D01*
X021400Y001620D01*
X001000Y007420D02*
X001040Y007460D01*
X001080D01*
X001040Y007500D01*
X001080Y007540D01*
X001040D01*
X001000Y007580D01*
X000960Y007540D01*
X000920D01*
X000960Y007500D01*
X000920Y007460D01*
X000960D01*
X001000Y007420D01*
Y006420D02*
X001040Y006460D01*
X001080D01*
X001040Y006500D01*
X001080Y006540D01*
X001040D01*
X001000Y006580D01*
X000960Y006540D01*
X000920D01*
X000960Y006500D01*
X000920Y006460D01*
X000960D01*
X001000Y006420D01*
Y005420D02*
X001040Y005460D01*
X001080D01*
X001040Y005500D01*
X001080Y005540D01*
X001040D01*
X001000Y005580D01*
X000960Y005540D01*
X000920D01*
X000960Y005500D01*
X000920Y005460D01*
X000960D01*
X001000Y005420D01*
X001500Y003180D02*
Y003340D01*
X001660D01*
Y003180D01*
X001500D01*
X002484D02*
Y003340D01*
X002644D01*
Y003180D01*
X002484D01*
X019920Y011220D02*
X019960Y011300D01*
X019920Y011380D01*
X020000Y011340D01*
X020080Y011380D01*
X020040Y011300D01*
X020080Y011220D01*
X020000Y011260D01*
X019920Y011220D01*
X020492Y006348D02*
X020532Y006428D01*
X020492Y006508D01*
X020572Y006468D01*
X020652Y006508D01*
X020612Y006428D01*
X020652Y006348D01*
X020572Y006388D01*
X020492Y006348D01*
X016392Y006248D02*
X016432Y006328D01*
X016392Y006408D01*
X016472Y006368D01*
X016552Y006408D01*
X016512Y006328D01*
X016552Y006248D01*
X016472Y006288D01*
X016392Y006248D01*
X003320Y009020D02*
X003360Y009100D01*
X003320Y009180D01*
X003400Y009140D01*
X003480Y009180D01*
X003440Y009100D01*
X003480Y009020D01*
X003400Y009060D01*
X003320Y009020D01*
X003676Y004664D02*
X003716Y004744D01*
X003676Y004824D01*
X003756Y004784D01*
X003836Y004824D01*
X003796Y004744D01*
X003836Y004664D01*
X003756Y004704D01*
X003676Y004664D01*
X019060Y008060D02*
Y008020D01*
X019140D01*
Y008060D01*
X019180D01*
Y008140D01*
X019140D01*
Y008180D01*
X019060D01*
Y008140D01*
X019020D01*
Y008060D01*
X019060D01*
X007220Y006520D02*
X007260Y006600D01*
X007220Y006680D01*
X007300Y006640D01*
X007380Y006680D01*
X007340Y006600D01*
X007380Y006520D01*
X007300Y006560D01*
X007220Y006520D01*
X006820Y010382D02*
X006860Y010462D01*
X006820Y010542D01*
X006900Y010502D01*
X006980Y010542D01*
X006940Y010462D01*
X006980Y010382D01*
X006900Y010422D01*
X006820Y010382D01*
X004554Y006920D02*
X004594Y007000D01*
X004554Y007080D01*
X004634Y007040D01*
X004714Y007080D01*
X004674Y007000D01*
X004714Y006920D01*
X004634Y006960D01*
X004554Y006920D01*
X005116Y004704D02*
Y004664D01*
X005196D01*
Y004704D01*
X005236D01*
Y004784D01*
X005196D01*
Y004824D01*
X005116D01*
Y004784D01*
X005076D01*
Y004704D01*
X005116D01*
D57*
X001580Y010930D02*
G03*
X001580Y010930I-000080J000000D01*
G01*
Y010300D02*
G03*
X001580Y010300I-000080J000000D01*
G01*
Y009670D02*
G03*
X001580Y009670I-000080J000000D01*
G01*
M02*
