G04 Layer_Color=8388736*
%FSAX24Y24*%
%MOIN*%
G70*
G01*
G75*
%ADD37R,0.1182X0.0434*%
%ADD38R,0.0493X0.0631*%
%ADD39R,0.0710X0.0631*%
%ADD40R,0.0631X0.0493*%
%ADD41R,0.0474X0.0434*%
%ADD42R,0.0513X0.0316*%
%ADD43R,0.0680X0.1280*%
%ADD44R,0.0434X0.0474*%
%ADD45C,0.0671*%
%ADD46R,0.0671X0.0671*%
%ADD47O,0.0867X0.0474*%
%ADD48O,0.0867X0.0474*%
%ADD49C,0.1655*%
%ADD50C,0.0867*%
%ADD51C,0.0789*%
%ADD52R,0.0789X0.0789*%
%ADD53C,0.0380*%
%ADD54C,0.0280*%
D37*
X017903Y010462D02*
D03*
Y009872D02*
D03*
Y009281D02*
D03*
Y008691D02*
D03*
Y008100D02*
D03*
Y007509D02*
D03*
Y006919D02*
D03*
Y006328D02*
D03*
Y005738D02*
D03*
X010383D02*
D03*
Y006328D02*
D03*
Y006919D02*
D03*
Y007509D02*
D03*
Y008100D02*
D03*
Y008691D02*
D03*
Y009281D02*
D03*
Y009872D02*
D03*
Y010462D02*
D03*
D38*
X020136Y004900D02*
D03*
X020864D02*
D03*
X008964Y006200D02*
D03*
X008236D02*
D03*
X008964Y007000D02*
D03*
X008236D02*
D03*
X008964Y007800D02*
D03*
X008236D02*
D03*
D39*
X021783Y008209D02*
D03*
X024617D02*
D03*
X021783Y009391D02*
D03*
X024617D02*
D03*
X021783Y004909D02*
D03*
X024617D02*
D03*
X021783Y006091D02*
D03*
X024617D02*
D03*
D40*
X020000Y009936D02*
D03*
Y010664D02*
D03*
X007600Y009636D02*
D03*
Y010364D02*
D03*
X020622Y006950D02*
D03*
Y007678D02*
D03*
X003400Y009636D02*
D03*
Y010364D02*
D03*
X003700Y006064D02*
D03*
Y005336D02*
D03*
X003690Y007454D02*
D03*
Y006726D02*
D03*
D41*
X019200Y010466D02*
D03*
Y009934D02*
D03*
X008900Y011066D02*
D03*
Y010534D02*
D03*
Y009334D02*
D03*
Y009866D02*
D03*
X008300Y011066D02*
D03*
Y010534D02*
D03*
D42*
X004640Y005002D02*
D03*
Y005376D02*
D03*
Y005750D02*
D03*
X005742D02*
D03*
Y005376D02*
D03*
Y005002D02*
D03*
D43*
X004510Y003250D02*
D03*
X005410D02*
D03*
D44*
X005156Y004290D02*
D03*
X004624D02*
D03*
X005214Y006420D02*
D03*
X005746D02*
D03*
D45*
X021300Y010600D02*
D03*
Y011600D02*
D03*
D46*
Y012600D02*
D03*
D47*
X001500Y010930D02*
D03*
Y010300D02*
D03*
D48*
Y009670D02*
D03*
D49*
X024500Y001000D02*
D03*
X001000D02*
D03*
X024500Y012300D02*
D03*
X001000D02*
D03*
D50*
X019400Y001700D02*
D03*
X020400D02*
D03*
X021400D02*
D03*
X001000Y007500D02*
D03*
Y006500D02*
D03*
Y005500D02*
D03*
D51*
X001580Y003260D02*
D03*
D52*
X002564D02*
D03*
D53*
X020000Y011300D02*
D03*
X020572Y006428D02*
D03*
X016472Y006328D02*
D03*
X003400Y009100D02*
D03*
X003756Y004744D02*
D03*
X007300Y006600D02*
D03*
X006900Y010462D02*
D03*
X004634Y007000D02*
D03*
D54*
X019100Y008100D02*
D03*
X005156Y004744D02*
D03*
M02*
