G04 Layer_Color=32896*
%FSAX24Y24*%
%MOIN*%
G70*
G01*
G75*
%ADD19C,0.0100*%
%ADD35C,0.0060*%
%ADD55C,0.0040*%
D19*
X003529Y002335D02*
Y004599D01*
X000615D02*
X003529D01*
X000615Y002335D02*
Y004599D01*
Y002335D02*
X003529D01*
D35*
X004037Y004587D02*
Y004283D01*
X004056Y004226D01*
X004075Y004207D01*
X004113Y004187D01*
X004151D01*
X004189Y004207D01*
X004208Y004226D01*
X004227Y004283D01*
Y004321D01*
X003934Y004511D02*
X003896Y004530D01*
X003839Y004587D01*
Y004187D01*
X002590Y004095D02*
Y003752D01*
X002761Y003924D02*
X002418D01*
D55*
X013280Y010420D02*
X013440D01*
X013240Y010380D02*
X013480D01*
X014320D02*
X014360D01*
X012920Y010340D02*
X012960D01*
X013200D02*
X013520D01*
X014280D02*
X014400D01*
X012880Y010300D02*
X013040D01*
X013160D02*
X013560D01*
X014240D02*
X014440D01*
X012840Y010260D02*
X013040D01*
X013120D02*
X013600D01*
X014200D02*
X014440D01*
X012800Y010220D02*
X013040D01*
X013120D02*
X013640D01*
X014160D02*
X014400D01*
X012760Y010180D02*
X013000D01*
X013040D02*
X013680D01*
X014120D02*
X014360D01*
X012760Y010140D02*
X012960D01*
X013040D02*
X013720D01*
X014040D02*
X014360D01*
X012760Y010100D02*
X013760D01*
X014000D02*
X014360D01*
X012760Y010060D02*
X013800D01*
X013920D02*
X014400D01*
X012840Y010020D02*
X013160D01*
X013200D02*
X013560D01*
X013600D02*
X013840D01*
X013880D02*
X014440D01*
X012880Y009980D02*
X013120D01*
X013200D02*
X013520D01*
X013640D02*
X014120D01*
X014240D02*
X014480D01*
X012840Y009940D02*
X013080D01*
X013240D02*
X013480D01*
X013680D02*
X014080D01*
X014280D02*
X014480D01*
X012800Y009900D02*
X013040D01*
X013720D02*
X014000D01*
X014320D02*
X014520D01*
X012760Y009860D02*
X013000D01*
X013520D02*
X013960D01*
X014320D02*
X014560D01*
X012720Y009820D02*
X012960D01*
X013440D02*
X013920D01*
X014360D02*
X014560D01*
X012720Y009780D02*
X012920D01*
X013400D02*
X013840D01*
X014400D02*
X014600D01*
X012720Y009740D02*
X012960D01*
X013360D02*
X013840D01*
X014400D02*
X014640D01*
X012720Y009700D02*
X013000D01*
X013320D02*
X013840D01*
X014440D02*
X014680D01*
X012760Y009660D02*
X013040D01*
X013320D02*
X013840D01*
X014480D02*
X014680D01*
X012800Y009620D02*
X013080D01*
X013320D02*
X013840D01*
X014520D02*
X014720D01*
X012840Y009580D02*
X013120D01*
X013320D02*
X013600D01*
X013640D02*
X013800D01*
X014520D02*
X014760D01*
X018360D02*
X018480D01*
X012920Y009540D02*
X013160D01*
X013320D02*
X013560D01*
X013600D02*
X013800D01*
X014560D02*
X014760D01*
X018360D02*
X018560D01*
X012960Y009500D02*
X013200D01*
X013280D02*
X013800D01*
X014600D02*
X014800D01*
X018360D02*
X018600D01*
X013000Y009460D02*
X013800D01*
X014600D02*
X014840D01*
X018360D02*
X018640D01*
X013040Y009420D02*
X013800D01*
X014640D02*
X014880D01*
X018400D02*
X018680D01*
X013080Y009380D02*
X013720D01*
X014680D02*
X014880D01*
X018440D02*
X018720D01*
X013120Y009340D02*
X013480D01*
X014720D02*
X014920D01*
X018480D02*
X018760D01*
X013120Y009300D02*
X013360D01*
X014720D02*
X014960D01*
X018520D02*
X018800D01*
X013080Y009260D02*
X013320D01*
X014760D02*
X014960D01*
X018600D02*
X018840D01*
X013040Y009220D02*
X013280D01*
X014800D02*
X015000D01*
X018640D02*
X018840D01*
X013040Y009180D02*
X013240D01*
X014800D02*
X015040D01*
X018680D02*
X018800D01*
X013000Y009140D02*
X013200D01*
X014840D02*
X015080D01*
X012960Y009100D02*
X013200D01*
X014880D02*
X015080D01*
X012960Y009060D02*
X013160D01*
X014920D02*
X015120D01*
X012920Y009020D02*
X013120D01*
X014920D02*
X015160D01*
X012880Y008980D02*
X013120D01*
X014960D02*
X015160D01*
X012880Y008940D02*
X013080D01*
X015000D02*
X015200D01*
X012840Y008900D02*
X013040D01*
X015000D02*
X015240D01*
X012840Y008860D02*
X013040D01*
X015040D02*
X015280D01*
X012800Y008820D02*
X013000D01*
X015080D02*
X015280D01*
X012800Y008780D02*
X013000D01*
X015120D02*
X015320D01*
X012760Y008740D02*
X012960D01*
X015120D02*
X015360D01*
X012760Y008700D02*
X012960D01*
X015160D02*
X015360D01*
X012720Y008660D02*
X012920D01*
X015200D02*
X015400D01*
X012720Y008620D02*
X012920D01*
X015200D02*
X015440D01*
X018280D02*
X018400D01*
X012680Y008580D02*
X012880D01*
X015240D02*
X015480D01*
X018200D02*
X018400D01*
X012680Y008540D02*
X012880D01*
X015280D02*
X015480D01*
X018120D02*
X018440D01*
X012680Y008500D02*
X012880D01*
X015320D02*
X015520D01*
X018040D02*
X018440D01*
X012640Y008460D02*
X012920D01*
X015320D02*
X015560D01*
X017960D02*
X018440D01*
X012600Y008420D02*
X013000D01*
X015360D02*
X015560D01*
X017880D02*
X018440D01*
X012600Y008380D02*
X013080D01*
X015400D02*
X015600D01*
X017840D02*
X018440D01*
X012560Y008340D02*
X012760D01*
X012800D02*
X013160D01*
X015400D02*
X015640D01*
X017800D02*
X018440D01*
X012520Y008300D02*
X012720D01*
X012840D02*
X013240D01*
X015440D02*
X015680D01*
X017440D02*
X017520D01*
X017760D02*
X018440D01*
X012520Y008260D02*
X012720D01*
X012920D02*
X013280D01*
X015480D02*
X015680D01*
X017400D02*
X017600D01*
X017720D02*
X018440D01*
X012560Y008220D02*
X012680D01*
X013000D02*
X013360D01*
X015480D02*
X015720D01*
X017400D02*
X017920D01*
X018080D02*
X018480D01*
X013080Y008180D02*
X013440D01*
X015520D02*
X015760D01*
X017400D02*
X017880D01*
X018200D02*
X018480D01*
X013120Y008140D02*
X013520D01*
X015560D02*
X015760D01*
X017440D02*
X017840D01*
X018280D02*
X018480D01*
X013200Y008100D02*
X013600D01*
X015600D02*
X015800D01*
X017520D02*
X017800D01*
X018320D02*
X018480D01*
X013280Y008060D02*
X013640D01*
X015600D02*
X015840D01*
X017600D02*
X017760D01*
X018320D02*
X018480D01*
X013360Y008020D02*
X013720D01*
X015640D02*
X015840D01*
X017600D02*
X017760D01*
X018320D02*
X018480D01*
X013440Y007980D02*
X013800D01*
X015680D02*
X015880D01*
X017560D02*
X017760D01*
X018320D02*
X018520D01*
X013520Y007940D02*
X013880D01*
X015720D02*
X015920D01*
X017560D02*
X017760D01*
X018320D02*
X018520D01*
X013560Y007900D02*
X013960D01*
X015720D02*
X015960D01*
X017560D02*
X017720D01*
X018320D02*
X018560D01*
X013640Y007860D02*
X014000D01*
X015760D02*
X015960D01*
X017560D02*
X017720D01*
X018320D02*
X018640D01*
X013720Y007820D02*
X014080D01*
X015800D02*
X016000D01*
X017520D02*
X017720D01*
X018320D02*
X018720D01*
X013800Y007780D02*
X014160D01*
X015800D02*
X016040D01*
X017520D02*
X017720D01*
X018280D02*
X018720D01*
X013880Y007740D02*
X014240D01*
X015840D02*
X016040D01*
X017520D02*
X017680D01*
X018280D02*
X018720D01*
X013920Y007700D02*
X014280D01*
X015880D02*
X016080D01*
X017520D02*
X017680D01*
X018240D02*
X018440D01*
X018600D02*
X018640D01*
X014000Y007660D02*
X014360D01*
X015880D02*
X016120D01*
X017480D02*
X017680D01*
X018200D02*
X018400D01*
X014080Y007620D02*
X014440D01*
X015920D02*
X016160D01*
X017480D02*
X017680D01*
X018200D02*
X018400D01*
X014160Y007580D02*
X014520D01*
X015960D02*
X016160D01*
X017480D02*
X017680D01*
X018160D02*
X018360D01*
X014200Y007540D02*
X014600D01*
X016000D02*
X016200D01*
X017480D02*
X017640D01*
X018120D02*
X018320D01*
X014280Y007500D02*
X014640D01*
X016000D02*
X016240D01*
X017440D02*
X017640D01*
X018120D02*
X018320D01*
X014360Y007460D02*
X014720D01*
X016040D02*
X016240D01*
X017440D02*
X017640D01*
X018080D02*
X018280D01*
X014440Y007420D02*
X014800D01*
X016080D02*
X016280D01*
X017440D02*
X017640D01*
X018040D02*
X018280D01*
X014520Y007380D02*
X014880D01*
X016080D02*
X016320D01*
X017440D02*
X017600D01*
X018040D02*
X018240D01*
X014600Y007340D02*
X014960D01*
X016120D02*
X016360D01*
X017440D02*
X017600D01*
X018000D02*
X018200D01*
X014640Y007300D02*
X015000D01*
X016160D02*
X016360D01*
X017400D02*
X017600D01*
X017960D02*
X018160D01*
X014720Y007260D02*
X015080D01*
X016200D02*
X016400D01*
X017400D02*
X017600D01*
X017960D02*
X018160D01*
X014800Y007220D02*
X015160D01*
X016200D02*
X016440D01*
X017400D02*
X017560D01*
X017920D02*
X018120D01*
X014880Y007180D02*
X015240D01*
X016240D02*
X016440D01*
X017160D02*
X017200D01*
X017400D02*
X017560D01*
X017880D02*
X018120D01*
X022160D02*
X022280D01*
X014960Y007140D02*
X015320D01*
X016280D02*
X016480D01*
X017120D02*
X017280D01*
X017360D02*
X017560D01*
X017880D02*
X018080D01*
X022120D02*
X022320D01*
X015000Y007100D02*
X015400D01*
X016280D02*
X016520D01*
X017120D02*
X017280D01*
X017360D02*
X017560D01*
X017840D02*
X018040D01*
X022120D02*
X022320D01*
X015080Y007060D02*
X015440D01*
X016320D02*
X016560D01*
X017120D02*
X017280D01*
X017360D02*
X017560D01*
X017800D02*
X018040D01*
X022120D02*
X022320D01*
X015160Y007020D02*
X015520D01*
X016360D02*
X016560D01*
X017120D02*
X017280D01*
X017360D02*
X017520D01*
X017760D02*
X018000D01*
X022120D02*
X022320D01*
X015240Y006980D02*
X015600D01*
X016400D02*
X016600D01*
X017120D02*
X017520D01*
X017760D02*
X017960D01*
X022120D02*
X022320D01*
X015320Y006940D02*
X015680D01*
X016400D02*
X016640D01*
X017120D02*
X017560D01*
X017720D02*
X017960D01*
X022120D02*
X022320D01*
X015360Y006900D02*
X015720D01*
X016440D02*
X016640D01*
X016840D02*
X017000D01*
X017120D02*
X017680D01*
X017720D02*
X017920D01*
X022120D02*
X022320D01*
X015440Y006860D02*
X015800D01*
X016480D02*
X016680D01*
X016760D02*
X017040D01*
X017120D02*
X017880D01*
X022120D02*
X022320D01*
X015520Y006820D02*
X015880D01*
X016480D02*
X017040D01*
X017120D02*
X017880D01*
X022120D02*
X022320D01*
X015600Y006780D02*
X015960D01*
X016520D02*
X017000D01*
X017120D02*
X017880D01*
X021920D02*
X022320D01*
X015640Y006740D02*
X016040D01*
X016560D02*
X016920D01*
X017120D02*
X017480D01*
X017600D02*
X017920D01*
X019720D02*
X019960D01*
X021640D02*
X022360D01*
X005280Y006700D02*
X005360D01*
X014960D02*
X015080D01*
X015720D02*
X016080D01*
X016560D02*
X016840D01*
X017120D02*
X017440D01*
X017560D02*
X017960D01*
X019640D02*
X020000D01*
X021360D02*
X022400D01*
X005240Y006660D02*
X005400D01*
X014920D02*
X015120D01*
X015800D02*
X016160D01*
X016520D02*
X016840D01*
X017160D02*
X017240D01*
X017280D02*
X017440D01*
X017520D02*
X018000D01*
X019000D02*
X019400D01*
X019560D02*
X020000D01*
X021120D02*
X022440D01*
X005240Y006620D02*
X005400D01*
X014920D02*
X015120D01*
X015880D02*
X016240D01*
X016480D02*
X016840D01*
X017240D02*
X017440D01*
X017520D02*
X017720D01*
X017800D02*
X018040D01*
X018680D02*
X020000D01*
X020840D02*
X022040D01*
X022240D02*
X022440D01*
X005240Y006580D02*
X005400D01*
X014880D02*
X015120D01*
X015960D02*
X016320D01*
X016440D02*
X016880D01*
X017240D02*
X017440D01*
X017480D02*
X017720D01*
X017840D02*
X018080D01*
X018480D02*
X020000D01*
X020560D02*
X021760D01*
X022280D02*
X022480D01*
X005240Y006540D02*
X005400D01*
X014840D02*
X015120D01*
X016000D02*
X016640D01*
X016680D02*
X016920D01*
X017240D02*
X017400D01*
X017480D02*
X017680D01*
X017880D02*
X018120D01*
X018360D02*
X020000D01*
X020320D02*
X021520D01*
X022320D02*
X022520D01*
X005240Y006500D02*
X005400D01*
X011000D02*
X011080D01*
X014840D02*
X015120D01*
X016080D02*
X016600D01*
X016720D02*
X016960D01*
X017240D02*
X017400D01*
X017440D02*
X017640D01*
X017920D02*
X018160D01*
X018360D02*
X019960D01*
X020040D02*
X021240D01*
X022320D02*
X022520D01*
X005240Y006460D02*
X005400D01*
X010960D02*
X011120D01*
X014800D02*
X015120D01*
X016160D02*
X016560D01*
X016760D02*
X016960D01*
X017200D02*
X017600D01*
X017960D02*
X018160D01*
X018360D02*
X018840D01*
X019400D02*
X020960D01*
X022360D02*
X022560D01*
X004920Y006420D02*
X006440D01*
X010960D02*
X011120D01*
X014760D02*
X015120D01*
X016240D02*
X016600D01*
X016800D02*
X017000D01*
X017200D02*
X017600D01*
X017960D02*
X018200D01*
X018360D02*
X018600D01*
X019360D02*
X020720D01*
X022360D02*
X022560D01*
X004640Y006380D02*
X007680D01*
X010960D02*
X011120D01*
X014760D02*
X015120D01*
X016320D02*
X016680D01*
X016800D02*
X017040D01*
X017200D02*
X017560D01*
X018000D02*
X018200D01*
X018360D02*
X018520D01*
X018760D02*
X018880D01*
X019240D02*
X020440D01*
X022400D02*
X022600D01*
X004400Y006340D02*
X008920D01*
X010960D02*
X011120D01*
X014720D02*
X015120D01*
X016280D02*
X016760D01*
X016840D02*
X017040D01*
X017120D02*
X017560D01*
X018040D02*
X018240D01*
X018360D02*
X018520D01*
X018720D02*
X020160D01*
X022400D02*
X022600D01*
X004200Y006300D02*
X010200D01*
X010960D02*
X011120D01*
X014720D02*
X015120D01*
X016280D02*
X016800D01*
X016880D02*
X017520D01*
X018040D02*
X018240D01*
X018360D02*
X018520D01*
X018720D02*
X019920D01*
X022440D02*
X022600D01*
X023040D02*
X023120D01*
X004080Y006260D02*
X005120D01*
X005880D02*
X011440D01*
X014720D02*
X014880D01*
X014960D02*
X015120D01*
X016280D02*
X016440D01*
X016520D02*
X017480D01*
X018080D02*
X018240D01*
X018400D02*
X019640D01*
X022440D02*
X022640D01*
X023000D02*
X023160D01*
X003440Y006220D02*
X003560D01*
X003960D02*
X004760D01*
X007120D02*
X012680D01*
X014680D02*
X014880D01*
X014960D02*
X015120D01*
X016240D02*
X016440D01*
X016600D02*
X017480D01*
X018080D02*
X019400D01*
X022440D02*
X022640D01*
X023000D02*
X023160D01*
X003360Y006180D02*
X003560D01*
X003880D02*
X004520D01*
X008360D02*
X013960D01*
X014680D02*
X014840D01*
X014960D02*
X015120D01*
X016240D02*
X016440D01*
X016680D02*
X017440D01*
X017920D02*
X019440D01*
X022480D02*
X022640D01*
X023000D02*
X023160D01*
X003320Y006140D02*
X003600D01*
X003800D02*
X004320D01*
X009600D02*
X015200D01*
X016240D02*
X016400D01*
X016760D02*
X017440D01*
X017600D02*
X019520D01*
X020000D02*
X020160D01*
X022480D02*
X022680D01*
X023000D02*
X023240D01*
X003240Y006100D02*
X003600D01*
X003760D02*
X004160D01*
X010600D02*
X016480D01*
X016800D02*
X019160D01*
X019200D02*
X019560D01*
X019960D02*
X020400D01*
X022480D02*
X022800D01*
X023000D02*
X023280D01*
X003160Y006060D02*
X003600D01*
X003720D02*
X004040D01*
X010480D02*
X011000D01*
X011920D02*
X018320D01*
X018400D02*
X019080D01*
X019200D02*
X019600D01*
X019960D02*
X020600D01*
X022400D02*
X022840D01*
X023000D02*
X023360D01*
X003120Y006020D02*
X003920D01*
X010400D02*
X010880D01*
X013200D02*
X018040D01*
X018120D02*
X018320D01*
X018440D02*
X019000D01*
X019120D02*
X019640D01*
X019960D02*
X020760D01*
X022400D02*
X022880D01*
X023000D02*
X023440D01*
X003080Y005980D02*
X003880D01*
X010320D02*
X010760D01*
X014520D02*
X017760D01*
X018120D02*
X018320D01*
X018480D02*
X018920D01*
X019120D02*
X019640D01*
X019960D02*
X020920D01*
X022360D02*
X022920D01*
X023000D02*
X023520D01*
X003080Y005940D02*
X003360D01*
X003400D02*
X003880D01*
X010240D02*
X010640D01*
X014600D02*
X017880D01*
X018120D02*
X018320D01*
X018520D02*
X018840D01*
X019080D02*
X019640D01*
X019960D02*
X020120D01*
X020280D02*
X021080D01*
X022320D02*
X022680D01*
X022720D02*
X022920D01*
X022960D02*
X023160D01*
X023200D02*
X023560D01*
X003080Y005900D02*
X003920D01*
X010200D02*
X010560D01*
X013720D02*
X018080D01*
X018120D02*
X018320D01*
X018560D02*
X018720D01*
X018800D02*
X018840D01*
X019080D02*
X019640D01*
X019960D02*
X020120D01*
X020480D02*
X021200D01*
X022320D02*
X022680D01*
X022760D02*
X023160D01*
X023280D02*
X023560D01*
X003120Y005860D02*
X003600D01*
X003680D02*
X003960D01*
X010120D02*
X010480D01*
X012760D02*
X018320D01*
X018720D02*
X018880D01*
X019120D02*
X019640D01*
X019960D02*
X020120D01*
X020680D02*
X021280D01*
X022320D02*
X022480D01*
X022520D02*
X022680D01*
X022760D02*
X023160D01*
X023240D02*
X023560D01*
X003200Y005820D02*
X003600D01*
X003720D02*
X004040D01*
X010080D02*
X010480D01*
X011800D02*
X017400D01*
X017560D02*
X018480D01*
X018720D02*
X018880D01*
X019160D02*
X019640D01*
X019960D02*
X020120D01*
X020840D02*
X021360D01*
X022320D02*
X022480D01*
X022520D02*
X022680D01*
X022760D02*
X023520D01*
X003280Y005780D02*
X003600D01*
X003760D02*
X004160D01*
X010080D02*
X010480D01*
X010880D02*
X016920D01*
X017000D02*
X017400D01*
X017760D02*
X018640D01*
X018720D02*
X018880D01*
X019320D02*
X019600D01*
X019960D02*
X020120D01*
X020960D02*
X021440D01*
X022320D02*
X022680D01*
X022760D02*
X023480D01*
X003360Y005740D02*
X003600D01*
X003840D02*
X004280D01*
X010040D02*
X010520D01*
X010560D02*
X014160D01*
X014480D02*
X016800D01*
X017000D02*
X017400D01*
X017960D02*
X018880D01*
X019280D02*
X019560D01*
X019960D02*
X020120D01*
X021120D02*
X021480D01*
X022320D02*
X022680D01*
X022720D02*
X022920D01*
X023000D02*
X023400D01*
X003440Y005700D02*
X003560D01*
X003880D02*
X004400D01*
X009280D02*
X009960D01*
X010040D02*
X010480D01*
X010560D02*
X013200D01*
X014160D02*
X015600D01*
X015760D02*
X016720D01*
X017040D02*
X017360D01*
X018120D02*
X019040D01*
X019160D02*
X019520D01*
X019960D02*
X020120D01*
X021120D02*
X021520D01*
X022360D02*
X022920D01*
X023000D02*
X023320D01*
X003960Y005660D02*
X004560D01*
X008480D02*
X010000D01*
X010040D02*
X010520D01*
X010560D02*
X012240D01*
X013840D02*
X015280D01*
X015640D02*
X016600D01*
X017080D02*
X017320D01*
X018080D02*
X018280D01*
X018360D02*
X019480D01*
X019960D02*
X020120D01*
X021080D02*
X021560D01*
X022360D02*
X022880D01*
X023000D02*
X023240D01*
X004080Y005620D02*
X004720D01*
X007640D02*
X010000D01*
X010040D02*
X010480D01*
X010560D02*
X011280D01*
X013480D02*
X015120D01*
X015480D02*
X016520D01*
X017160D02*
X017240D01*
X018080D02*
X018280D01*
X018560D02*
X019440D01*
X019960D02*
X020080D01*
X021040D02*
X021320D01*
X021360D02*
X021600D01*
X022400D02*
X022840D01*
X023000D02*
X023160D01*
X004200Y005580D02*
X004920D01*
X006840D02*
X009960D01*
X010040D02*
X010480D01*
X013160D02*
X014800D01*
X014960D02*
X015120D01*
X015320D02*
X016440D01*
X018080D02*
X018240D01*
X018720D02*
X019640D01*
X020000D02*
X020080D01*
X021040D02*
X021240D01*
X021400D02*
X021600D01*
X022440D02*
X022800D01*
X023000D02*
X023160D01*
X004320Y005540D02*
X005160D01*
X006040D02*
X009680D01*
X010080D02*
X010520D01*
X012840D02*
X014280D01*
X014640D02*
X014800D01*
X014960D02*
X015120D01*
X015160D02*
X016440D01*
X018040D02*
X018240D01*
X018720D02*
X019840D01*
X019960D02*
X020120D01*
X021040D02*
X021280D01*
X021400D02*
X021600D01*
X022480D02*
X022720D01*
X023000D02*
X023160D01*
X004480Y005500D02*
X008840D01*
X010120D02*
X010520D01*
X012520D02*
X013960D01*
X014640D02*
X014840D01*
X014960D02*
X016200D01*
X016280D02*
X016480D01*
X018040D02*
X018240D01*
X018720D02*
X020120D01*
X021040D02*
X021600D01*
X022440D02*
X022640D01*
X023040D02*
X023120D01*
X004640Y005460D02*
X008040D01*
X010200D02*
X010640D01*
X012200D02*
X013640D01*
X014640D02*
X014840D01*
X014880D02*
X015560D01*
X015640D02*
X016120D01*
X016280D02*
X016480D01*
X018000D02*
X018200D01*
X018720D02*
X019040D01*
X019320D02*
X020240D01*
X021080D02*
X021560D01*
X022440D02*
X022640D01*
X004840Y005420D02*
X007240D01*
X010240D02*
X010720D01*
X011840D02*
X013320D01*
X014680D02*
X015400D01*
X015520D02*
X016000D01*
X016320D02*
X016520D01*
X017960D02*
X018200D01*
X018760D02*
X018880D01*
X019520D02*
X020440D01*
X021120D02*
X021560D01*
X022440D02*
X022600D01*
X005040Y005380D02*
X006400D01*
X010320D02*
X010880D01*
X011520D02*
X013000D01*
X014560D02*
X015240D01*
X015440D02*
X015920D01*
X016320D02*
X016560D01*
X017920D02*
X018160D01*
X019720D02*
X020640D01*
X021080D02*
X021480D01*
X022400D02*
X022600D01*
X005200Y005340D02*
X005600D01*
X010440D02*
X011040D01*
X011200D02*
X012680D01*
X014400D02*
X015160D01*
X015320D02*
X015800D01*
X016360D02*
X016600D01*
X017880D02*
X018120D01*
X019920D02*
X020800D01*
X020920D02*
X021440D01*
X022400D02*
X022600D01*
X005200Y005300D02*
X005400D01*
X010520D02*
X012360D01*
X014280D02*
X015160D01*
X015200D02*
X015720D01*
X016400D02*
X016640D01*
X017840D02*
X018080D01*
X019960D02*
X021360D01*
X022360D02*
X022560D01*
X005200Y005260D02*
X005400D01*
X010640D02*
X012040D01*
X014120D02*
X014920D01*
X014960D02*
X015600D01*
X016440D02*
X016680D01*
X017800D02*
X018080D01*
X019960D02*
X020120D01*
X020320D02*
X021280D01*
X022360D02*
X022560D01*
X005200Y005220D02*
X005400D01*
X010800D02*
X011680D01*
X013960D02*
X014680D01*
X014760D02*
X015520D01*
X016480D02*
X016720D01*
X017200D02*
X017320D01*
X017760D02*
X018040D01*
X019960D02*
X020120D01*
X020240D02*
X021400D01*
X022320D02*
X022520D01*
X005200Y005180D02*
X005400D01*
X010960D02*
X011360D01*
X012720D02*
X012840D01*
X013800D02*
X014520D01*
X014760D02*
X015400D01*
X016520D02*
X016800D01*
X017160D02*
X017360D01*
X017680D02*
X018000D01*
X019720D02*
X019800D01*
X019960D02*
X021600D01*
X022320D02*
X022520D01*
X005240Y005140D02*
X005360D01*
X011000D02*
X011200D01*
X012720D02*
X012880D01*
X013680D02*
X014360D01*
X014800D02*
X015320D01*
X016560D02*
X016880D01*
X017160D02*
X017360D01*
X017600D02*
X017920D01*
X019680D02*
X019840D01*
X019960D02*
X020840D01*
X020920D02*
X021800D01*
X022280D02*
X022480D01*
X005280Y005100D02*
X005320D01*
X011000D02*
X011200D01*
X012720D02*
X012880D01*
X013520D02*
X014200D01*
X014720D02*
X015200D01*
X016600D02*
X016960D01*
X017160D02*
X017360D01*
X017520D02*
X017880D01*
X019640D02*
X019840D01*
X019960D02*
X020640D01*
X021120D02*
X022000D01*
X022240D02*
X022440D01*
X011000Y005060D02*
X011200D01*
X012720D02*
X012880D01*
X013360D02*
X014040D01*
X014600D02*
X015160D01*
X016640D02*
X017360D01*
X017520D02*
X017840D01*
X019600D02*
X019840D01*
X019960D02*
X020360D01*
X021320D02*
X022440D01*
X011000Y005020D02*
X011200D01*
X012720D02*
X012920D01*
X013200D02*
X013920D01*
X014520D02*
X015160D01*
X016720D02*
X017360D01*
X017520D02*
X017760D01*
X019560D02*
X019840D01*
X020000D02*
X020040D01*
X021520D02*
X022400D01*
X011040Y004980D02*
X011200D01*
X012720D02*
X012920D01*
X013080D02*
X013760D01*
X014400D02*
X014880D01*
X014920D02*
X015160D01*
X016800D02*
X017360D01*
X017520D02*
X017680D01*
X019520D02*
X019840D01*
X021720D02*
X022360D01*
X011040Y004940D02*
X011200D01*
X012760D02*
X013600D01*
X014320D02*
X014800D01*
X014960D02*
X015160D01*
X016880D02*
X017360D01*
X019480D02*
X019840D01*
X021880D02*
X022360D01*
X011040Y004900D02*
X011160D01*
X012760D02*
X013440D01*
X014200D02*
X014680D01*
X015000D02*
X015120D01*
X017040D02*
X017360D01*
X019440D02*
X019800D01*
X022080D02*
X022360D01*
X012640Y004860D02*
X013280D01*
X014120D02*
X014600D01*
X016560D02*
X016640D01*
X017160D02*
X017360D01*
X019400D02*
X019800D01*
X022160D02*
X022360D01*
X012560Y004820D02*
X013160D01*
X014000D02*
X014480D01*
X016520D02*
X016720D01*
X017200D02*
X017360D01*
X019360D02*
X019760D01*
X022160D02*
X022360D01*
X012440Y004780D02*
X013000D01*
X013880D02*
X014400D01*
X016520D02*
X016800D01*
X017200D02*
X017320D01*
X019320D02*
X019760D01*
X022160D02*
X022360D01*
X012320Y004740D02*
X012840D01*
X013800D02*
X014280D01*
X016520D02*
X016880D01*
X019280D02*
X019520D01*
X019560D02*
X019760D01*
X022160D02*
X022360D01*
X012240Y004700D02*
X012720D01*
X013680D02*
X014200D01*
X016520D02*
X016920D01*
X019240D02*
X019480D01*
X019520D02*
X019720D01*
X022160D02*
X022360D01*
X011920Y004660D02*
X012080D01*
X012160D02*
X012640D01*
X013600D02*
X014080D01*
X016480D02*
X016960D01*
X017000D02*
X017040D01*
X019200D02*
X019440D01*
X019480D02*
X019680D01*
X022200D02*
X022360D01*
X011800Y004620D02*
X012520D01*
X013480D02*
X014040D01*
X016480D02*
X016680D01*
X016720D02*
X016920D01*
X016960D02*
X017120D01*
X019160D02*
X019400D01*
X019440D02*
X019680D01*
X022240D02*
X022320D01*
X011760Y004580D02*
X012400D01*
X013400D02*
X013880D01*
X013960D02*
X014080D01*
X016520D02*
X016680D01*
X016720D02*
X017200D01*
X019120D02*
X019360D01*
X019440D02*
X019640D01*
X011720Y004540D02*
X012320D01*
X013280D02*
X013760D01*
X013920D02*
X014120D01*
X016520D02*
X017280D01*
X019120D02*
X019320D01*
X019400D02*
X019640D01*
X011720Y004500D02*
X012280D01*
X013200D02*
X013680D01*
X013960D02*
X014160D01*
X016520D02*
X017320D01*
X019120D02*
X019280D01*
X019360D02*
X019600D01*
X011680Y004460D02*
X012320D01*
X013080D02*
X013560D01*
X013960D02*
X014200D01*
X016520D02*
X016840D01*
X016880D02*
X017360D01*
X019160D02*
X019240D01*
X019320D02*
X019560D01*
X011680Y004420D02*
X012080D01*
X012120D02*
X012320D01*
X012880D02*
X013480D01*
X014000D02*
X014200D01*
X016520D02*
X017040D01*
X017120D02*
X017360D01*
X019000D02*
X019080D01*
X019280D02*
X019520D01*
X011680Y004380D02*
X012000D01*
X012160D02*
X012320D01*
X012680D02*
X013360D01*
X014040D02*
X014240D01*
X016520D02*
X017320D01*
X018960D02*
X019120D01*
X019240D02*
X019520D01*
X011680Y004340D02*
X011960D01*
X012160D02*
X012320D01*
X012400D02*
X013280D01*
X014040D02*
X014320D01*
X016560D02*
X017280D01*
X018920D02*
X019120D01*
X019200D02*
X019560D01*
X011680Y004300D02*
X013160D01*
X014080D02*
X014360D01*
X016560D02*
X016760D01*
X016800D02*
X017240D01*
X018880D02*
X019120D01*
X019160D02*
X019600D01*
X011680Y004260D02*
X013120D01*
X014120D02*
X014480D01*
X016600D02*
X017200D01*
X018840D02*
X019080D01*
X019120D02*
X019600D01*
X011680Y004220D02*
X012800D01*
X012960D02*
X013120D01*
X014160D02*
X014480D01*
X016600D02*
X017120D01*
X018800D02*
X019040D01*
X019080D02*
X019640D01*
X011720Y004180D02*
X012560D01*
X012960D02*
X013160D01*
X014240D02*
X014480D01*
X016640D02*
X017080D01*
X018760D02*
X019640D01*
X011720Y004140D02*
X012240D01*
X012960D02*
X013160D01*
X014280D02*
X014480D01*
X016680D02*
X017000D01*
X018720D02*
X019640D01*
X011760Y004100D02*
X012200D01*
X013000D02*
X013160D01*
X016800D02*
X016880D01*
X018680D02*
X019200D01*
X019280D02*
X019640D01*
X011840Y004060D02*
X012160D01*
X013000D02*
X013160D01*
X018680D02*
X019160D01*
X019320D02*
X019640D01*
X011960Y004020D02*
X012040D01*
X013000D02*
X013160D01*
X018640D02*
X019080D01*
X019400D02*
X019600D01*
X018600Y003980D02*
X019040D01*
X018560Y003940D02*
X018960D01*
X018520Y003900D02*
X018920D01*
X018480Y003860D02*
X018840D01*
X018440Y003820D02*
X018760D01*
X018440Y003780D02*
X018720D01*
X018480Y003740D02*
X018640D01*
M02*
